<svg xmlns="http://www.w3.org/2000/svg" xmlns:xlink="http://www.w3.org/1999/xlink" width="500" zoomAndPan="magnify" viewBox="0 0 375 374.999991" height="500" preserveAspectRatio="xMidYMid meet" version="1.0"><defs><clipPath id="49f767d1ea"><path d="M 29.882812 80.125 L 344.882812 80.125 L 344.882812 294 L 29.882812 294 Z M 29.882812 80.125 " clip-rule="nonzero"/></clipPath></defs><g clip-path="url(#49f767d1ea)"><path fill="#000000" d="M 321.746094 164.191406 L 109.171875 164.191406 C 109.171875 164.191406 153.953125 119.75 155.136719 118.230469 C 158.210938 114.292969 160.054688 109.355469 160.054688 103.980469 C 160.054688 98.042969 157.808594 92.644531 154.140625 88.527344 L 152.261719 86.644531 C 148.148438 82.980469 142.742188 80.730469 136.800781 80.730469 C 130.691406 80.730469 125.144531 83.117188 120.992188 86.96875 C 120.992188 86.96875 35.222656 172.566406 34.785156 173.132812 C 31.75 177.0625 29.929688 181.960938 29.929688 187.3125 C 29.929688 192.648438 31.75 197.558594 34.777344 201.480469 C 36.003906 203.066406 122.0625 288.71875 122.0625 288.71875 C 126.054688 291.953125 131.136719 293.898438 136.679688 293.898438 C 149.519531 293.898438 159.933594 283.496094 159.933594 270.660156 C 159.933594 265.03125 157.929688 259.867188 154.601562 255.847656 L 109.171875 210.4375 L 321.746094 210.4375 C 334.527344 210.4375 344.878906 200.078125 344.878906 187.3125 C 344.878906 174.539062 334.527344 164.191406 321.746094 164.191406 " fill-opacity="1" fill-rule="nonzero"/></g></svg>