<svg xmlns="http://www.w3.org/2000/svg" xmlns:xlink="http://www.w3.org/1999/xlink" width="300" zoomAndPan="magnify" viewBox="0 0 375 374.999991" height="200" preserveAspectRatio="xMidYMid meet" version="1.0"><defs><clipPath id="ccfa151e5e"><path d="M 88.933594 60.054688 L 286.09375 60.054688 L 286.09375 315.03125 L 88.933594 315.03125 Z M 88.933594 60.054688 " clip-rule="nonzero"/></clipPath><clipPath id="4997e98c04"><path d="M 88.890625 60.054688 L 207 60.054688 L 207 128 L 88.890625 128 Z M 88.890625 60.054688 " clip-rule="nonzero"/></clipPath><clipPath id="877e7fdc12"><path d="M 180.023438 86.429688 L 286.09375 86.429688 L 286.09375 315.03125 L 180.023438 315.03125 Z M 180.023438 86.429688 " clip-rule="nonzero"/></clipPath><clipPath id="684536fcb4"><path d="M 241.75 232.691406 L 250.738281 232.691406 L 250.738281 252.472656 L 241.75 252.472656 Z M 241.75 232.691406 " clip-rule="nonzero"/></clipPath><clipPath id="ac579a9b01"><path d="M 248.757812 248.457031 L 248.671875 249.117188 L 248.25 248.753906 L 245.675781 246.507812 L 241.988281 252.023438 L 243.605469 235.777344 L 243.605469 235.6875 L 243.875 232.960938 C 244.035156 232.902344 244.195312 232.878906 244.355469 232.902344 C 245.234375 233.019531 246.003906 233.140625 246.660156 233.257812 L 247.503906 233.410156 L 247.503906 233.382812 C 248.519531 233.539062 249.476562 233.328125 250.375 232.75 L 248.757812 248.457031 " clip-rule="nonzero"/></clipPath><clipPath id="7488b24c3d"><path d="M 252.789062 228.050781 L 241.988281 232.75 L 239.574219 256.722656 L 250.375 252.023438 Z M 252.789062 228.050781 " clip-rule="nonzero"/></clipPath><linearGradient x1="0.0708381" gradientTransform="matrix(-2.262299, 22.49371, -23.755307, 10.338051, 247.533519, 228.813748)" y1="0" x2="1.136524" gradientUnits="userSpaceOnUse" y2="0" id="d54b40157f"><stop stop-opacity="1" stop-color="rgb(29.399109%, 7.099915%, 1.199341%)" offset="0"/><stop stop-opacity="1" stop-color="rgb(29.399109%, 7.099915%, 1.199341%)" offset="0.0625"/><stop stop-opacity="1" stop-color="rgb(29.399109%, 7.099915%, 1.199341%)" offset="0.09375"/><stop stop-opacity="1" stop-color="rgb(29.408264%, 7.099915%, 1.199341%)" offset="0.109375"/><stop stop-opacity="1" stop-color="rgb(29.808044%, 7.299805%, 1.199341%)" offset="0.113281"/><stop stop-opacity="1" stop-color="rgb(30.198669%, 7.499695%, 1.199341%)" offset="0.117187"/><stop stop-opacity="1" stop-color="rgb(30.780029%, 7.641602%, 1.390076%)" offset="0.121094"/><stop stop-opacity="1" stop-color="rgb(31.361389%, 7.785034%, 1.580811%)" offset="0.125"/><stop stop-opacity="1" stop-color="rgb(31.761169%, 7.972717%, 1.589966%)" offset="0.128906"/><stop stop-opacity="1" stop-color="rgb(32.16095%, 8.161926%, 1.599121%)" offset="0.132812"/><stop stop-opacity="1" stop-color="rgb(32.501221%, 8.180237%, 1.599121%)" offset="0.136719"/><stop stop-opacity="1" stop-color="rgb(32.843018%, 8.198547%, 1.599121%)" offset="0.140625"/><stop stop-opacity="1" stop-color="rgb(33.482361%, 8.410645%, 1.799011%)" offset="0.144531"/><stop stop-opacity="1" stop-color="rgb(34.12323%, 8.622742%, 1.998901%)" offset="0.148438"/><stop stop-opacity="1" stop-color="rgb(34.513855%, 8.813477%, 1.998901%)" offset="0.152344"/><stop stop-opacity="1" stop-color="rgb(34.90448%, 9.004211%, 1.998901%)" offset="0.15625"/><stop stop-opacity="1" stop-color="rgb(35.487366%, 9.20105%, 1.998901%)" offset="0.160156"/><stop stop-opacity="1" stop-color="rgb(36.071777%, 9.399414%, 1.998901%)" offset="0.164062"/><stop stop-opacity="1" stop-color="rgb(36.468506%, 9.58252%, 2.182007%)" offset="0.167969"/><stop stop-opacity="1" stop-color="rgb(36.86676%, 9.767151%, 2.366638%)" offset="0.171875"/><stop stop-opacity="1" stop-color="rgb(37.213135%, 9.95636%, 2.381897%)" offset="0.175781"/><stop stop-opacity="1" stop-color="rgb(37.561035%, 10.147095%, 2.398682%)" offset="0.179687"/><stop stop-opacity="1" stop-color="rgb(38.143921%, 10.33783%, 2.398682%)" offset="0.183594"/><stop stop-opacity="1" stop-color="rgb(38.728333%, 10.528564%, 2.398682%)" offset="0.1875"/><stop stop-opacity="1" stop-color="rgb(39.169312%, 10.568237%, 2.548218%)" offset="0.191406"/><stop stop-opacity="1" stop-color="rgb(39.610291%, 10.609436%, 2.69928%)" offset="0.195312"/><stop stop-opacity="1" stop-color="rgb(40.196228%, 10.803223%, 2.69928%)" offset="0.199219"/><stop stop-opacity="1" stop-color="rgb(40.782166%, 10.998535%, 2.69928%)" offset="0.203125"/><stop stop-opacity="1" stop-color="rgb(41.175842%, 11.198425%, 2.69928%)" offset="0.207031"/><stop stop-opacity="1" stop-color="rgb(41.571045%, 11.399841%, 2.69928%)" offset="0.210938"/><stop stop-opacity="1" stop-color="rgb(41.96167%, 11.599731%, 2.876282%)" offset="0.214844"/><stop stop-opacity="1" stop-color="rgb(42.352295%, 11.799622%, 3.053284%)" offset="0.21875"/><stop stop-opacity="1" stop-color="rgb(42.892456%, 11.999512%, 3.076172%)" offset="0.222656"/><stop stop-opacity="1" stop-color="rgb(43.434143%, 12.199402%, 3.09906%)" offset="0.226562"/><stop stop-opacity="1" stop-color="rgb(43.873596%, 12.348938%, 3.09906%)" offset="0.230469"/><stop stop-opacity="1" stop-color="rgb(44.314575%, 12.5%, 3.09906%)" offset="0.234375"/><stop stop-opacity="1" stop-color="rgb(44.903564%, 12.696838%, 3.297424%)" offset="0.238281"/><stop stop-opacity="1" stop-color="rgb(45.492554%, 12.895203%, 3.495789%)" offset="0.242188"/><stop stop-opacity="1" stop-color="rgb(45.884705%, 13.085938%, 3.497314%)" offset="0.246094"/><stop stop-opacity="1" stop-color="rgb(46.276855%, 13.276672%, 3.49884%)" offset="0.25"/><stop stop-opacity="1" stop-color="rgb(46.66748%, 13.287354%, 3.49884%)" offset="0.253906"/><stop stop-opacity="1" stop-color="rgb(47.058105%, 13.299561%, 3.49884%)" offset="0.257812"/><stop stop-opacity="1" stop-color="rgb(47.598267%, 13.499451%, 3.668213%)" offset="0.261719"/><stop stop-opacity="1" stop-color="rgb(48.138428%, 13.699341%, 3.839111%)" offset="0.265625"/><stop stop-opacity="1" stop-color="rgb(48.579407%, 13.909912%, 3.868103%)" offset="0.269531"/><stop stop-opacity="1" stop-color="rgb(49.020386%, 14.120483%, 3.898621%)" offset="0.273437"/><stop stop-opacity="1" stop-color="rgb(49.610901%, 14.309692%, 3.898621%)" offset="0.277344"/><stop stop-opacity="1" stop-color="rgb(50.201416%, 14.498901%, 3.898621%)" offset="0.28125"/><stop stop-opacity="1" stop-color="rgb(50.590515%, 14.689636%, 4.089355%)" offset="0.285156"/><stop stop-opacity="1" stop-color="rgb(50.98114%, 14.881897%, 4.281616%)" offset="0.289062"/><stop stop-opacity="1" stop-color="rgb(51.371765%, 15.072632%, 4.290771%)" offset="0.292969"/><stop stop-opacity="1" stop-color="rgb(51.76239%, 15.263367%, 4.299927%)" offset="0.296875"/><stop stop-opacity="1" stop-color="rgb(52.302551%, 15.452576%, 4.299927%)" offset="0.300781"/><stop stop-opacity="1" stop-color="rgb(52.844238%, 15.643311%, 4.299927%)" offset="0.304687"/><stop stop-opacity="1" stop-color="rgb(53.234863%, 15.834045%, 4.46167%)" offset="0.308594"/><stop stop-opacity="1" stop-color="rgb(53.625488%, 16.02478%, 4.624939%)" offset="0.3125"/><stop stop-opacity="1" stop-color="rgb(54.264832%, 16.064453%, 4.66156%)" offset="0.316406"/><stop stop-opacity="1" stop-color="rgb(54.905701%, 16.105652%, 4.699707%)" offset="0.320312"/><stop stop-opacity="1" stop-color="rgb(55.296326%, 16.30249%, 4.699707%)" offset="0.324219"/><stop stop-opacity="1" stop-color="rgb(55.686951%, 16.499329%, 4.699707%)" offset="0.328125"/><stop stop-opacity="1" stop-color="rgb(56.077576%, 16.699219%, 4.882812%)" offset="0.332031"/><stop stop-opacity="1" stop-color="rgb(56.468201%, 16.899109%, 5.067444%)" offset="0.335938"/><stop stop-opacity="1" stop-color="rgb(57.014465%, 17.098999%, 5.082703%)" offset="0.339844"/><stop stop-opacity="1" stop-color="rgb(57.562256%, 17.298889%, 5.099487%)" offset="0.34375"/><stop stop-opacity="1" stop-color="rgb(57.945251%, 17.422485%, 5.099487%)" offset="0.347656"/><stop stop-opacity="1" stop-color="rgb(58.329773%, 17.547607%, 5.099487%)" offset="0.351562"/><stop stop-opacity="1" stop-color="rgb(58.970642%, 17.773438%, 5.299377%)" offset="0.355469"/><stop stop-opacity="1" stop-color="rgb(59.611511%, 17.999268%, 5.499268%)" offset="0.359375"/><stop stop-opacity="1" stop-color="rgb(60.00061%, 18.19458%, 5.499268%)" offset="0.363281"/><stop stop-opacity="1" stop-color="rgb(60.391235%, 18.391418%, 5.499268%)" offset="0.367188"/><stop stop-opacity="1" stop-color="rgb(60.78186%, 18.39447%, 5.499268%)" offset="0.371094"/><stop stop-opacity="1" stop-color="rgb(61.172485%, 18.399048%, 5.499268%)" offset="0.375"/><stop stop-opacity="1" stop-color="rgb(61.763%, 18.598938%, 5.67627%)" offset="0.378906"/><stop stop-opacity="1" stop-color="rgb(62.353516%, 18.798828%, 5.853271%)" offset="0.382812"/><stop stop-opacity="1" stop-color="rgb(62.693787%, 18.998718%, 5.87616%)" offset="0.386719"/><stop stop-opacity="1" stop-color="rgb(63.035583%, 19.198608%, 5.899048%)" offset="0.390625"/><stop stop-opacity="1" stop-color="rgb(63.674927%, 19.407654%, 5.899048%)" offset="0.394531"/><stop stop-opacity="1" stop-color="rgb(64.315796%, 19.616699%, 5.899048%)" offset="0.398438"/><stop stop-opacity="1" stop-color="rgb(64.706421%, 19.807434%, 6.097412%)" offset="0.402344"/><stop stop-opacity="1" stop-color="rgb(65.097046%, 19.999695%, 6.297302%)" offset="0.40625"/><stop stop-opacity="1" stop-color="rgb(65.487671%, 20.188904%, 6.297302%)" offset="0.410156"/><stop stop-opacity="1" stop-color="rgb(65.878296%, 20.378113%, 6.298828%)" offset="0.414062"/><stop stop-opacity="1" stop-color="rgb(66.468811%, 20.568848%, 6.298828%)" offset="0.417969"/><stop stop-opacity="1" stop-color="rgb(67.059326%, 20.759583%, 6.298828%)" offset="0.421875"/><stop stop-opacity="1" stop-color="rgb(67.407227%, 20.948792%, 6.469727%)" offset="0.425781"/><stop stop-opacity="1" stop-color="rgb(67.755127%, 21.139526%, 6.640625%)" offset="0.429687"/><stop stop-opacity="1" stop-color="rgb(68.29834%, 21.168518%, 6.669617%)" offset="0.433594"/><stop stop-opacity="1" stop-color="rgb(68.843079%, 21.199036%, 6.698608%)" offset="0.4375"/><stop stop-opacity="1" stop-color="rgb(69.322205%, 21.400452%, 6.698608%)" offset="0.441406"/><stop stop-opacity="1" stop-color="rgb(69.802856%, 21.601868%, 6.698608%)" offset="0.445312"/><stop stop-opacity="1" stop-color="rgb(70.191956%, 21.800232%, 6.890869%)" offset="0.449219"/><stop stop-opacity="1" stop-color="rgb(70.582581%, 21.998596%, 7.08313%)" offset="0.453125"/><stop stop-opacity="1" stop-color="rgb(71.173096%, 22.198486%, 7.090759%)" offset="0.457031"/><stop stop-opacity="1" stop-color="rgb(71.763611%, 22.399902%, 7.099915%)" offset="0.460937"/><stop stop-opacity="1" stop-color="rgb(72.111511%, 22.549438%, 7.099915%)" offset="0.464844"/><stop stop-opacity="1" stop-color="rgb(72.459412%, 22.698975%, 7.099915%)" offset="0.46875"/><stop stop-opacity="1" stop-color="rgb(73.005676%, 22.862244%, 7.263184%)" offset="0.472656"/><stop stop-opacity="1" stop-color="rgb(73.553467%, 23.025513%, 7.426453%)" offset="0.476562"/><stop stop-opacity="1" stop-color="rgb(74.029541%, 23.262024%, 7.463074%)" offset="0.480469"/><stop stop-opacity="1" stop-color="rgb(74.507141%, 23.498535%, 7.499695%)" offset="0.484375"/><stop stop-opacity="1" stop-color="rgb(74.897766%, 23.692322%, 7.499695%)" offset="0.488281"/><stop stop-opacity="1" stop-color="rgb(75.288391%, 23.887634%, 7.499695%)" offset="0.492187"/><stop stop-opacity="1" stop-color="rgb(75.878906%, 23.893738%, 7.499695%)" offset="0.496094"/><stop stop-opacity="1" stop-color="rgb(76.469421%, 23.899841%, 7.499695%)" offset="0.5"/><stop stop-opacity="1" stop-color="rgb(76.860046%, 24.099731%, 7.649231%)" offset="0.503906"/><stop stop-opacity="1" stop-color="rgb(77.250671%, 24.299622%, 7.798767%)" offset="0.507812"/><stop stop-opacity="1" stop-color="rgb(77.757263%, 24.499512%, 7.798767%)" offset="0.511719"/><stop stop-opacity="1" stop-color="rgb(78.263855%, 24.699402%, 7.798767%)" offset="0.515625"/><stop stop-opacity="1" stop-color="rgb(78.738403%, 24.899292%, 7.804871%)" offset="0.519531"/><stop stop-opacity="1" stop-color="rgb(79.212952%, 25.099182%, 7.8125%)" offset="0.523438"/><stop stop-opacity="1" stop-color="rgb(79.602051%, 25.296021%, 8.004761%)" offset="0.527344"/><stop stop-opacity="1" stop-color="rgb(79.992676%, 25.492859%, 8.198547%)" offset="0.53125"/><stop stop-opacity="1" stop-color="rgb(80.583191%, 25.683594%, 8.198547%)" offset="0.535156"/><stop stop-opacity="1" stop-color="rgb(81.173706%, 25.874329%, 8.198547%)" offset="0.539062"/><stop stop-opacity="1" stop-color="rgb(81.564331%, 26.065063%, 8.198547%)" offset="0.542969"/><stop stop-opacity="1" stop-color="rgb(81.954956%, 26.255798%, 8.198547%)" offset="0.546875"/><stop stop-opacity="1" stop-color="rgb(82.472229%, 26.445007%, 8.398438%)" offset="0.550781"/><stop stop-opacity="1" stop-color="rgb(82.989502%, 26.635742%, 8.599854%)" offset="0.554688"/><stop stop-opacity="1" stop-color="rgb(83.203125%, 26.667786%, 8.599854%)" offset="0.558594"/><stop stop-opacity="1" stop-color="rgb(83.416748%, 26.699829%, 8.599854%)" offset="0.5625"/><stop stop-opacity="1" stop-color="rgb(83.457947%, 26.699829%, 8.599854%)" offset="0.625"/><stop stop-opacity="1" stop-color="rgb(83.499146%, 26.699829%, 8.599854%)" offset="0.75"/><stop stop-opacity="1" stop-color="rgb(83.499146%, 26.699829%, 8.599854%)" offset="1"/></linearGradient><clipPath id="bbd07e9220"><path d="M 251.335938 223.699219 L 265 223.699219 L 265 241.683594 L 251.335938 241.683594 Z M 251.335938 223.699219 " clip-rule="nonzero"/></clipPath><clipPath id="3e4e4fa22d"><path d="M 264.132812 232.75 L 264.820312 233.679688 L 264.132812 233.890625 L 260.113281 235.117188 L 258.945312 241.144531 L 251.816406 231.492188 C 252.355469 230.914062 252.84375 230.253906 253.285156 229.511719 C 254.003906 228.214844 254.554688 227.414062 254.933594 227.113281 C 256.128906 226.117188 257 225.039062 257.539062 223.878906 L 264.132812 232.75 " clip-rule="nonzero"/></clipPath><clipPath id="8ec7b5587e"><path d="M 258.5 215.382812 L 245.214844 232.269531 L 258.136719 249.640625 L 271.421875 232.75 Z M 258.5 215.382812 " clip-rule="nonzero"/></clipPath><linearGradient x1="-0.0935603" gradientTransform="matrix(9.497724, 12.767444, -10.191316, 12.956806, 252.707598, 225.070279)" y1="0" x2="1.266872" gradientUnits="userSpaceOnUse" y2="0" id="4cf2818009"><stop stop-opacity="1" stop-color="rgb(29.399109%, 7.099915%, 1.199341%)" offset="0"/><stop stop-opacity="1" stop-color="rgb(29.399109%, 7.099915%, 1.199341%)" offset="0.125"/><stop stop-opacity="1" stop-color="rgb(29.399109%, 7.099915%, 1.199341%)" offset="0.1875"/><stop stop-opacity="1" stop-color="rgb(29.417419%, 7.099915%, 1.199341%)" offset="0.203125"/><stop stop-opacity="1" stop-color="rgb(29.634094%, 7.299805%, 1.199341%)" offset="0.207031"/><stop stop-opacity="1" stop-color="rgb(29.833984%, 7.499695%, 1.199341%)" offset="0.210937"/><stop stop-opacity="1" stop-color="rgb(30.613708%, 7.647705%, 1.397705%)" offset="0.214844"/><stop stop-opacity="1" stop-color="rgb(31.394958%, 7.797241%, 1.597595%)" offset="0.21875"/><stop stop-opacity="1" stop-color="rgb(31.929016%, 7.987976%, 1.597595%)" offset="0.222656"/><stop stop-opacity="1" stop-color="rgb(32.463074%, 8.178711%, 1.599121%)" offset="0.226562"/><stop stop-opacity="1" stop-color="rgb(33.110046%, 8.389282%, 1.628113%)" offset="0.230469"/><stop stop-opacity="1" stop-color="rgb(33.758545%, 8.599854%, 1.65863%)" offset="0.234375"/><stop stop-opacity="1" stop-color="rgb(34.34906%, 8.81958%, 1.828003%)" offset="0.238281"/><stop stop-opacity="1" stop-color="rgb(34.939575%, 9.040833%, 1.998901%)" offset="0.242188"/><stop stop-opacity="1" stop-color="rgb(35.53009%, 9.230042%, 2.009583%)" offset="0.246094"/><stop stop-opacity="1" stop-color="rgb(36.120605%, 9.420776%, 2.02179%)" offset="0.25"/><stop stop-opacity="1" stop-color="rgb(36.711121%, 9.611511%, 2.209473%)" offset="0.253906"/><stop stop-opacity="1" stop-color="rgb(37.301636%, 9.802246%, 2.398682%)" offset="0.257813"/><stop stop-opacity="1" stop-color="rgb(37.834167%, 10.00061%, 2.398682%)" offset="0.261719"/><stop stop-opacity="1" stop-color="rgb(38.366699%, 10.198975%, 2.398682%)" offset="0.265625"/><stop stop-opacity="1" stop-color="rgb(39.047241%, 10.430908%, 2.548218%)" offset="0.269531"/><stop stop-opacity="1" stop-color="rgb(39.729309%, 10.664368%, 2.69928%)" offset="0.273438"/><stop stop-opacity="1" stop-color="rgb(40.309143%, 11.032104%, 2.69928%)" offset="0.277344"/><stop stop-opacity="1" stop-color="rgb(40.890503%, 11.399841%, 2.69928%)" offset="0.28125"/><stop stop-opacity="1" stop-color="rgb(41.467285%, 11.599731%, 2.711487%)" offset="0.285156"/><stop stop-opacity="1" stop-color="rgb(42.045593%, 11.799622%, 2.72522%)" offset="0.289062"/><stop stop-opacity="1" stop-color="rgb(42.579651%, 11.999512%, 2.911377%)" offset="0.292969"/><stop stop-opacity="1" stop-color="rgb(43.113708%, 12.199402%, 3.09906%)" offset="0.296875"/><stop stop-opacity="1" stop-color="rgb(43.699646%, 12.34436%, 3.09906%)" offset="0.300781"/><stop stop-opacity="1" stop-color="rgb(44.287109%, 12.490845%, 3.09906%)" offset="0.304688"/><stop stop-opacity="1" stop-color="rgb(44.877625%, 12.680054%, 3.283691%)" offset="0.308594"/><stop stop-opacity="1" stop-color="rgb(45.46814%, 12.869263%, 3.468323%)" offset="0.3125"/><stop stop-opacity="1" stop-color="rgb(46.133423%, 13.108826%, 3.483582%)" offset="0.316406"/><stop stop-opacity="1" stop-color="rgb(46.800232%, 13.349915%, 3.49884%)" offset="0.320312"/><stop stop-opacity="1" stop-color="rgb(47.331238%, 13.539124%, 3.69873%)" offset="0.324219"/><stop stop-opacity="1" stop-color="rgb(47.862244%, 13.729858%, 3.898621%)" offset="0.328125"/><stop stop-opacity="1" stop-color="rgb(48.635864%, 13.920593%, 3.898621%)" offset="0.332031"/><stop stop-opacity="1" stop-color="rgb(49.411011%, 14.111328%, 3.898621%)" offset="0.335937"/><stop stop-opacity="1" stop-color="rgb(49.998474%, 14.305115%, 3.898621%)" offset="0.339844"/><stop stop-opacity="1" stop-color="rgb(50.585938%, 14.498901%, 3.898621%)" offset="0.34375"/><stop stop-opacity="1" stop-color="rgb(51.165771%, 14.884949%, 4.098511%)" offset="0.347656"/><stop stop-opacity="1" stop-color="rgb(51.747131%, 15.272522%, 4.299927%)" offset="0.351563"/><stop stop-opacity="1" stop-color="rgb(52.349854%, 15.486145%, 4.299927%)" offset="0.355469"/><stop stop-opacity="1" stop-color="rgb(52.954102%, 15.699768%, 4.299927%)" offset="0.359375"/><stop stop-opacity="1" stop-color="rgb(53.544617%, 15.899658%, 4.499817%)" offset="0.363281"/><stop stop-opacity="1" stop-color="rgb(54.135132%, 16.099548%, 4.699707%)" offset="0.367188"/><stop stop-opacity="1" stop-color="rgb(54.725647%, 16.299438%, 4.699707%)" offset="0.371094"/><stop stop-opacity="1" stop-color="rgb(55.316162%, 16.499329%, 4.699707%)" offset="0.375"/><stop stop-opacity="1" stop-color="rgb(55.905151%, 16.697693%, 4.699707%)" offset="0.378906"/><stop stop-opacity="1" stop-color="rgb(56.494141%, 16.897583%, 4.699707%)" offset="0.382812"/><stop stop-opacity="1" stop-color="rgb(57.028198%, 17.097473%, 4.899597%)" offset="0.386719"/><stop stop-opacity="1" stop-color="rgb(57.562256%, 17.298889%, 5.099487%)" offset="0.390625"/><stop stop-opacity="1" stop-color="rgb(58.239746%, 17.478943%, 5.128479%)" offset="0.394531"/><stop stop-opacity="1" stop-color="rgb(58.918762%, 17.658997%, 5.158997%)" offset="0.398438"/><stop stop-opacity="1" stop-color="rgb(59.498596%, 17.848206%, 5.328369%)" offset="0.402344"/><stop stop-opacity="1" stop-color="rgb(60.079956%, 18.03894%, 5.499268%)" offset="0.40625"/><stop stop-opacity="1" stop-color="rgb(60.65979%, 18.229675%, 5.499268%)" offset="0.410156"/><stop stop-opacity="1" stop-color="rgb(61.24115%, 18.42041%, 5.499268%)" offset="0.414062"/><stop stop-opacity="1" stop-color="rgb(61.82251%, 18.809509%, 5.699158%)" offset="0.417969"/><stop stop-opacity="1" stop-color="rgb(62.40387%, 19.198608%, 5.899048%)" offset="0.421875"/><stop stop-opacity="1" stop-color="rgb(62.942505%, 19.390869%, 5.899048%)" offset="0.425781"/><stop stop-opacity="1" stop-color="rgb(63.482666%, 19.58313%, 5.899048%)" offset="0.429687"/><stop stop-opacity="1" stop-color="rgb(64.073181%, 19.772339%, 5.899048%)" offset="0.433594"/><stop stop-opacity="1" stop-color="rgb(64.663696%, 19.963074%, 5.899048%)" offset="0.4375"/><stop stop-opacity="1" stop-color="rgb(65.325928%, 20.181274%, 6.098938%)" offset="0.441406"/><stop stop-opacity="1" stop-color="rgb(65.989685%, 20.399475%, 6.298828%)" offset="0.445312"/><stop stop-opacity="1" stop-color="rgb(66.75415%, 20.611572%, 6.298828%)" offset="0.449219"/><stop stop-opacity="1" stop-color="rgb(67.518616%, 20.825195%, 6.298828%)" offset="0.453125"/><stop stop-opacity="1" stop-color="rgb(68.061829%, 21.01593%, 6.498718%)" offset="0.457031"/><stop stop-opacity="1" stop-color="rgb(68.606567%, 21.206665%, 6.698608%)" offset="0.460938"/><stop stop-opacity="1" stop-color="rgb(69.190979%, 21.401978%, 6.698608%)" offset="0.464844"/><stop stop-opacity="1" stop-color="rgb(69.775391%, 21.598816%, 6.698608%)" offset="0.46875"/><stop stop-opacity="1" stop-color="rgb(70.355225%, 21.798706%, 6.88324%)" offset="0.472656"/><stop stop-opacity="1" stop-color="rgb(70.936584%, 21.998596%, 7.067871%)" offset="0.476562"/><stop stop-opacity="1" stop-color="rgb(71.586609%, 22.216797%, 7.08313%)" offset="0.480469"/><stop stop-opacity="1" stop-color="rgb(72.236633%, 22.436523%, 7.099915%)" offset="0.484375"/><stop stop-opacity="1" stop-color="rgb(72.782898%, 22.767639%, 7.115173%)" offset="0.488281"/><stop stop-opacity="1" stop-color="rgb(73.329163%, 23.098755%, 7.130432%)" offset="0.492188"/><stop stop-opacity="1" stop-color="rgb(73.919678%, 23.298645%, 7.315063%)" offset="0.496094"/><stop stop-opacity="1" stop-color="rgb(74.510193%, 23.498535%, 7.499695%)" offset="0.5"/><stop stop-opacity="1" stop-color="rgb(75.09613%, 23.695374%, 7.499695%)" offset="0.503906"/><stop stop-opacity="1" stop-color="rgb(75.683594%, 23.892212%, 7.499695%)" offset="0.507812"/><stop stop-opacity="1" stop-color="rgb(76.277161%, 24.081421%, 7.63855%)" offset="0.511719"/><stop stop-opacity="1" stop-color="rgb(76.872253%, 24.272156%, 7.778931%)" offset="0.515625"/><stop stop-opacity="1" stop-color="rgb(77.490234%, 24.511719%, 7.788086%)" offset="0.519531"/><stop stop-opacity="1" stop-color="rgb(78.108215%, 24.752808%, 7.798767%)" offset="0.523438"/><stop stop-opacity="1" stop-color="rgb(78.688049%, 24.943542%, 7.998657%)" offset="0.527344"/><stop stop-opacity="1" stop-color="rgb(79.269409%, 25.134277%, 8.198547%)" offset="0.53125"/><stop stop-opacity="1" stop-color="rgb(79.850769%, 25.325012%, 8.198547%)" offset="0.535156"/><stop stop-opacity="1" stop-color="rgb(80.432129%, 25.515747%, 8.198547%)" offset="0.539062"/><stop stop-opacity="1" stop-color="rgb(81.013489%, 25.706482%, 8.198547%)" offset="0.542969"/><stop stop-opacity="1" stop-color="rgb(81.596375%, 25.898743%, 8.198547%)" offset="0.546875"/><stop stop-opacity="1" stop-color="rgb(82.139587%, 26.098633%, 8.398438%)" offset="0.550781"/><stop stop-opacity="1" stop-color="rgb(82.6828%, 26.298523%, 8.599854%)" offset="0.554688"/><stop stop-opacity="1" stop-color="rgb(83.070374%, 26.498413%, 8.599854%)" offset="0.558594"/><stop stop-opacity="1" stop-color="rgb(83.457947%, 26.699829%, 8.599854%)" offset="0.5625"/><stop stop-opacity="1" stop-color="rgb(83.477783%, 26.699829%, 8.599854%)" offset="0.625"/><stop stop-opacity="1" stop-color="rgb(83.499146%, 26.699829%, 8.599854%)" offset="0.75"/><stop stop-opacity="1" stop-color="rgb(83.499146%, 26.699829%, 8.599854%)" offset="1"/></linearGradient></defs><g clip-path="url(#ccfa151e5e)"><path fill="#a49464" d="M 284.445312 87.328125 C 283.949219 86.90625 283.386719 86.6875 282.765625 86.667969 C 282.585938 86.410156 282.378906 86.179688 282.136719 85.976562 C 281.640625 85.582031 281.101562 85.359375 280.519531 85.320312 C 280.320312 85.101562 280.121094 84.890625 279.921875 84.691406 C 279.34375 84.230469 278.714844 84.011719 278.035156 84.03125 C 277.375 84.03125 276.664062 84.261719 275.90625 84.722656 L 248.445312 100.589844 L 246.453125 99.433594 L 243.367188 97.667969 L 241.117188 96.347656 L 228.085938 103.84375 L 228.113281 98.238281 L 227.785156 98.417969 L 223.351562 95.839844 L 215.742188 91.464844 L 208.101562 87.027344 L 206.75 86.277344 L 206.78125 67.214844 L 206.808594 67.007812 L 206.542969 67.097656 L 204.203125 65.71875 L 199.980469 63.292969 L 196.984375 61.582031 L 194.375 60.054688 L 88.964844 120.539062 L 88.933594 120.597656 L 89.023438 120.6875 L 89.355469 284.660156 L 101.457031 291.644531 L 106.761719 288.738281 L 110.179688 286.878906 L 113.714844 284.933594 L 137.714844 298.808594 L 137.746094 299.257812 L 138.105469 299.019531 L 138.195312 299.078125 L 138.195312 298.988281 L 151.140625 291.496094 L 151.199219 296.292969 L 161.566406 302.285156 L 161.597656 302.765625 L 161.957031 302.496094 L 162.132812 302.617188 L 162.132812 302.40625 L 175.589844 294.644531 L 175.589844 307.230469 C 175.589844 308.769531 175.878906 309.988281 176.457031 310.886719 C 176.65625 311.226562 176.917969 311.527344 177.238281 311.785156 C 177.738281 312.144531 178.257812 312.355469 178.792969 312.414062 C 178.992188 312.65625 179.214844 312.863281 179.453125 313.046875 C 179.953125 313.425781 180.492188 313.636719 181.074219 313.675781 C 181.292969 313.953125 181.523438 314.195312 181.761719 314.394531 C 182.859375 315.253906 184.199219 315.242188 185.777344 314.363281 L 280.460938 259.632812 C 282.019531 258.757812 283.335938 257.238281 284.414062 255.082031 C 285.511719 252.921875 286.074219 250.785156 286.09375 248.667969 L 286.09375 91.792969 C 286.09375 89.695312 285.542969 88.207031 284.445312 87.328125 " fill-opacity="1" fill-rule="evenodd"/></g><path fill="#097577" d="M 151.289062 147.902344 L 228.085938 103.84375 L 241.117188 96.347656 L 243.367188 97.667969 L 157.671875 146.914062 L 160.457031 148.5 L 163.8125 150.449219 L 178.4375 142.042969 C 178.023438 142.617188 177.632812 143.261719 177.265625 143.972656 C 176.96875 144.558594 176.710938 145.136719 176.488281 145.714844 L 168.90625 150.089844 L 168.96875 149.699219 L 166.03125 151.378906 L 165.941406 151.765625 L 161.535156 154.34375 L 150.871094 148.199219 L 150.839844 148.167969 L 150.871094 148.140625 L 151.289062 147.902344 " fill-opacity="1" fill-rule="evenodd"/><path fill="#1fbcbf" d="M 161.566406 302.285156 L 161.535156 154.34375 L 165.941406 151.765625 L 166.089844 299.796875 L 169.054688 298.121094 L 168.90625 150.089844 L 176.488281 145.714844 C 175.890625 147.296875 175.589844 148.867188 175.589844 150.417969 L 175.589844 294.644531 L 162.132812 302.40625 L 161.957031 302.496094 L 161.597656 302.765625 L 161.566406 302.285156 " fill-opacity="1" fill-rule="evenodd"/><path fill="#a49a7f" d="M 204.203125 65.71875 L 104.097656 123.265625 L 100.558594 121.195312 C 101.019531 120.875 101.289062 120.648438 101.371094 120.507812 C 102.488281 118.566406 120.933594 108.140625 156.714844 89.214844 C 167.378906 82.722656 176.878906 76.976562 185.207031 71.984375 C 191.140625 68.40625 196.0625 65.507812 199.980469 63.292969 Z M 160.457031 148.5 C 162.613281 147.222656 165.042969 145.800781 167.738281 144.246094 C 184.15625 134.753906 194.804688 128.558594 199.679688 125.664062 C 202.375 124.0625 206.792969 121.664062 212.921875 118.46875 C 218.816406 115.351562 223.082031 113.023438 225.71875 111.484375 C 226.554688 110.984375 227.347656 110.507812 228.085938 110.046875 C 233.816406 106.570312 237.582031 104.332031 239.382812 103.332031 C 242.199219 101.671875 244.554688 100.375 246.453125 99.433594 L 248.445312 100.589844 L 181.222656 139.417969 C 180.195312 140.019531 179.265625 140.890625 178.4375 142.042969 L 163.8125 150.449219 Z M 215.742188 91.464844 L 223.351562 95.839844 L 137.386719 145.234375 L 129.625 140.738281 C 133.160156 137.28125 140.882812 132.125 152.789062 125.273438 C 163.675781 118.976562 173.082031 113.960938 181.011719 110.226562 C 184.050781 108.746094 188.273438 106.410156 193.6875 103.210938 C 200.339844 99.257812 204.671875 96.738281 206.691406 95.660156 C 206.75 95.640625 206.78125 95.621094 206.78125 95.601562 C 210.15625 93.78125 213.140625 92.402344 215.742188 91.464844 " fill-opacity="1" fill-rule="evenodd"/><path fill="#fd4f5e" d="M 106.613281 124.824219 L 106.761719 288.738281 L 101.457031 291.644531 L 101.457031 127.851562 Z M 110.179688 286.878906 L 110.089844 122.875 L 206.542969 67.097656 L 206.808594 67.007812 L 206.78125 67.214844 L 206.75 86.277344 L 203.335938 84.300781 L 113.445312 135.882812 L 113.054688 135.644531 L 113.023438 136.121094 L 112.785156 136.273438 L 113.054688 136.390625 L 113.503906 284.8125 L 113.714844 284.933594 L 110.179688 286.878906 " fill-opacity="1" fill-rule="evenodd"/><g clip-path="url(#4997e98c04)"><path fill="#c21827" d="M 101.457031 127.851562 L 89.023438 120.6875 L 88.933594 120.597656 L 88.964844 120.539062 L 194.375 60.054688 L 196.984375 61.582031 L 96.90625 119.097656 L 100.558594 121.195312 L 104.097656 123.265625 L 204.203125 65.71875 L 206.542969 67.097656 L 110.089844 122.875 L 110.121094 122.453125 L 106.703125 124.433594 L 106.613281 124.824219 L 101.457031 127.851562 " fill-opacity="1" fill-rule="evenodd"/></g><path fill="#e1d7ba" d="M 194.585938 232.390625 L 189.191406 226.578125 C 188.871094 226.238281 188.671875 225.835938 188.59375 225.378906 C 188.515625 224.917969 188.574219 224.480469 188.773438 224.058594 L 194.496094 211.953125 C 194.753906 211.371094 195.175781 210.972656 195.753906 210.753906 C 196.355469 210.550781 196.945312 210.582031 197.523438 210.839844 C 198.082031 211.101562 198.46875 211.53125 198.691406 212.128906 C 198.890625 212.710938 198.859375 213.289062 198.601562 213.867188 L 193.566406 224.597656 L 197.914062 229.304688 C 198.332031 229.761719 198.53125 230.304688 198.511719 230.921875 C 198.492188 231.5625 198.253906 232.089844 197.792969 232.511719 C 197.3125 232.929688 196.761719 233.128906 196.144531 233.109375 C 195.523438 233.089844 195.003906 232.851562 194.585938 232.390625 Z M 100.558594 121.195312 L 96.90625 119.097656 L 196.984375 61.582031 L 199.980469 63.292969 C 196.0625 65.507812 191.140625 68.40625 185.207031 71.984375 C 176.878906 76.976562 167.378906 82.722656 156.714844 89.214844 C 120.933594 108.140625 102.488281 118.566406 101.371094 120.507812 C 101.289062 120.648438 101.019531 120.875 100.558594 121.195312 Z M 215.742188 91.464844 C 213.140625 92.402344 210.15625 93.78125 206.78125 95.601562 C 206.78125 95.621094 206.75 95.640625 206.691406 95.660156 C 204.671875 96.738281 200.339844 99.257812 193.6875 103.210938 C 188.273438 106.410156 184.050781 108.746094 181.011719 110.226562 C 173.082031 113.960938 163.675781 118.976562 152.789062 125.273438 C 140.882812 132.125 133.160156 137.28125 129.625 140.738281 L 122.132812 136.421875 L 208.101562 87.027344 Z M 160.457031 148.5 L 157.671875 146.914062 L 243.367188 97.667969 L 246.453125 99.433594 C 244.554688 100.375 242.199219 101.671875 239.382812 103.332031 C 237.582031 104.332031 233.816406 106.570312 228.085938 110.046875 C 227.347656 110.507812 226.554688 110.984375 225.71875 111.484375 C 223.082031 113.023438 218.816406 115.351562 212.921875 118.46875 C 206.792969 121.664062 202.375 124.0625 199.679688 125.664062 C 194.804688 128.558594 184.15625 134.753906 167.738281 144.246094 C 165.042969 145.800781 162.613281 147.222656 160.457031 148.5 Z M 270.242188 169.179688 L 275.636719 174.996094 C 275.957031 175.335938 276.15625 175.734375 276.238281 176.195312 C 276.316406 176.65625 276.253906 177.09375 276.054688 177.515625 L 270.332031 189.621094 C 270.074219 190.199219 269.652344 190.601562 269.074219 190.820312 C 268.476562 191.019531 267.886719 190.988281 267.304688 190.730469 C 266.75 190.46875 266.359375 190.042969 266.136719 189.441406 C 265.9375 188.863281 265.96875 188.28125 266.230469 187.703125 L 271.261719 176.972656 L 266.917969 172.269531 C 266.5 171.808594 266.300781 171.269531 266.316406 170.648438 C 266.335938 170.007812 266.578125 169.480469 267.035156 169.0625 C 267.515625 168.640625 268.066406 168.441406 268.683594 168.460938 C 269.304688 168.484375 269.824219 168.722656 270.242188 169.179688 " fill-opacity="1" fill-rule="evenodd"/><path fill="#d99300" d="M 208.101562 87.027344 L 122.132812 136.421875 L 129.625 140.738281 L 137.386719 145.234375 L 223.351562 95.839844 L 227.785156 98.417969 L 145.386719 145.953125 L 145.535156 294.671875 L 142.539062 296.410156 L 142.417969 147.691406 L 137.6875 150.480469 L 137.566406 150.566406 L 113.054688 136.390625 L 112.785156 136.273438 L 113.023438 136.121094 L 113.445312 135.882812 L 203.335938 84.300781 L 206.75 86.277344 L 208.101562 87.027344 " fill-opacity="1" fill-rule="evenodd"/><path fill="#ffd22e" d="M 137.714844 298.808594 L 137.6875 150.480469 L 142.417969 147.691406 L 142.539062 296.410156 L 145.535156 294.671875 L 145.386719 145.953125 L 227.785156 98.417969 L 228.113281 98.238281 L 228.085938 103.84375 L 151.289062 147.902344 L 150.898438 147.660156 L 150.871094 148.140625 L 150.839844 148.167969 L 150.871094 148.199219 L 151.140625 291.496094 L 138.195312 298.988281 L 138.105469 299.019531 L 137.746094 299.257812 L 137.714844 298.808594 " fill-opacity="1" fill-rule="evenodd"/><path fill="#e43140" d="M 110.089844 122.875 L 110.179688 286.878906 L 106.761719 288.738281 L 106.613281 124.824219 L 106.703125 124.433594 L 110.121094 122.453125 Z M 101.457031 291.644531 L 89.355469 284.660156 L 89.023438 120.6875 L 101.457031 127.851562 L 101.457031 291.644531 " fill-opacity="1" fill-rule="evenodd"/><path fill="#4b637e" d="M 138.105469 299.019531 L 138.195312 298.988281 L 138.195312 299.078125 Z M 113.023438 136.121094 L 113.054688 135.644531 L 113.445312 135.882812 L 113.023438 136.121094 " fill-opacity="1" fill-rule="evenodd"/><path fill="#f3a90f" d="M 137.6875 150.480469 L 137.714844 298.808594 L 113.714844 284.933594 L 113.503906 284.8125 L 113.054688 136.390625 L 137.566406 150.566406 L 137.6875 150.480469 " fill-opacity="1" fill-rule="evenodd"/><path fill="#0d8e90" d="M 151.140625 291.496094 L 150.871094 148.199219 L 161.535156 154.34375 L 161.566406 302.285156 L 151.199219 296.292969 Z M 168.90625 150.089844 L 169.054688 298.121094 L 166.089844 299.796875 L 165.941406 151.765625 L 166.03125 151.378906 L 168.96875 149.699219 L 168.90625 150.089844 " fill-opacity="1" fill-rule="evenodd"/><path fill="#7e5f4b" d="M 162.132812 302.40625 L 162.132812 302.617188 L 161.957031 302.496094 Z M 150.871094 148.140625 L 150.898438 147.660156 L 151.289062 147.902344 L 150.871094 148.140625 " fill-opacity="1" fill-rule="evenodd"/><g clip-path="url(#877e7fdc12)"><path fill="#333333" d="M 279.382812 95.628906 L 186.644531 149.160156 L 186.617188 305.402344 L 279.382812 251.84375 Z M 181.074219 313.675781 C 180.414062 312.777344 180.09375 311.507812 180.113281 309.867188 L 180.113281 153.027344 C 180.113281 150.90625 180.671875 148.769531 181.792969 146.613281 C 182.871094 144.453125 184.199219 142.925781 185.777344 142.027344 L 280.460938 87.328125 C 281.300781 86.847656 282.066406 86.628906 282.765625 86.667969 C 283.386719 86.6875 283.949219 86.90625 284.445312 87.328125 C 285.542969 88.207031 286.09375 89.695312 286.09375 91.792969 L 286.09375 248.667969 C 286.074219 250.785156 285.511719 252.921875 284.414062 255.082031 C 283.335938 257.238281 282.019531 258.757812 280.460938 259.632812 L 185.777344 314.363281 C 184.199219 315.242188 182.859375 315.253906 181.761719 314.394531 C 181.523438 314.195312 181.292969 313.953125 181.074219 313.675781 " fill-opacity="1" fill-rule="evenodd"/></g><path fill="#cccccc" d="M 181.074219 313.675781 C 180.492188 313.636719 179.953125 313.425781 179.453125 313.046875 C 179.214844 312.863281 178.992188 312.65625 178.792969 312.414062 C 178.136719 311.496094 177.808594 310.199219 177.808594 308.519531 L 177.777344 151.675781 C 177.796875 149.558594 178.367188 147.421875 179.484375 145.265625 C 179.851562 144.539062 180.242188 143.886719 180.667969 143.300781 C 181.488281 142.160156 182.410156 141.285156 183.4375 140.675781 L 278.125 85.976562 C 278.980469 85.480469 279.78125 85.257812 280.519531 85.320312 C 281.101562 85.359375 281.640625 85.582031 282.136719 85.976562 C 282.378906 86.179688 282.585938 86.410156 282.765625 86.667969 C 282.066406 86.628906 281.300781 86.847656 280.460938 87.328125 L 185.777344 142.027344 C 184.199219 142.925781 182.871094 144.453125 181.792969 146.613281 C 180.671875 148.769531 180.113281 150.90625 180.113281 153.027344 L 180.113281 309.867188 C 180.09375 311.507812 180.414062 312.777344 181.074219 313.675781 " fill-opacity="1" fill-rule="evenodd"/><path fill="#666666" d="M 280.519531 85.320312 C 279.78125 85.257812 278.980469 85.480469 278.125 85.976562 L 183.4375 140.675781 C 182.410156 141.285156 181.488281 142.160156 180.667969 143.300781 C 180.242188 143.886719 179.851562 144.539062 179.484375 145.265625 C 178.367188 147.421875 177.796875 149.558594 177.777344 151.675781 L 177.808594 308.519531 C 177.808594 310.199219 178.136719 311.496094 178.792969 312.414062 C 178.257812 312.355469 177.738281 312.144531 177.238281 311.785156 C 176.917969 311.527344 176.65625 311.226562 176.457031 310.886719 C 175.878906 309.988281 175.589844 308.769531 175.589844 307.230469 L 175.589844 150.417969 C 175.589844 148.867188 175.890625 147.296875 176.488281 145.714844 C 176.710938 145.136719 176.96875 144.558594 177.265625 143.972656 C 177.632812 143.261719 178.023438 142.617188 178.4375 142.042969 C 179.265625 140.890625 180.195312 140.019531 181.222656 139.417969 L 248.445312 100.589844 L 275.90625 84.722656 C 276.664062 84.261719 277.375 84.03125 278.035156 84.03125 C 278.714844 84.011719 279.34375 84.230469 279.921875 84.691406 C 280.121094 84.890625 280.320312 85.101562 280.519531 85.320312 " fill-opacity="1" fill-rule="evenodd"/><path fill="#fffbf0" d="M 194.585938 232.390625 C 195.003906 232.851562 195.523438 233.089844 196.144531 233.109375 C 196.761719 233.128906 197.3125 232.929688 197.792969 232.511719 C 198.253906 232.089844 198.492188 231.5625 198.511719 230.921875 C 198.53125 230.304688 198.332031 229.761719 197.914062 229.304688 L 193.566406 224.597656 L 198.601562 213.867188 C 198.859375 213.289062 198.890625 212.710938 198.691406 212.128906 C 198.46875 211.53125 198.082031 211.101562 197.523438 210.839844 C 196.945312 210.582031 196.355469 210.550781 195.753906 210.753906 C 195.175781 210.972656 194.753906 211.371094 194.496094 211.953125 L 188.773438 224.058594 C 188.574219 224.480469 188.515625 224.917969 188.59375 225.378906 C 188.671875 225.835938 188.871094 226.238281 189.191406 226.578125 Z M 277.734375 96.589844 L 277.703125 250.824219 L 186.644531 303.421875 L 186.675781 149.191406 Z M 248.25 248.753906 L 248.671875 249.117188 L 248.757812 248.457031 L 264.132812 239.554688 L 264.132812 233.890625 L 264.820312 233.679688 L 264.132812 232.75 L 264.132812 122.003906 L 200.28125 158.871094 L 200.28125 276.417969 Z M 270.242188 169.179688 C 269.824219 168.722656 269.304688 168.484375 268.683594 168.460938 C 268.066406 168.441406 267.515625 168.640625 267.035156 169.0625 C 266.578125 169.480469 266.335938 170.007812 266.316406 170.648438 C 266.300781 171.269531 266.5 171.808594 266.917969 172.269531 L 271.261719 176.972656 L 266.230469 187.703125 C 265.96875 188.28125 265.9375 188.863281 266.136719 189.441406 C 266.359375 190.042969 266.75 190.46875 267.304688 190.730469 C 267.886719 190.988281 268.476562 191.019531 269.074219 190.820312 C 269.652344 190.601562 270.074219 190.199219 270.332031 189.621094 L 276.054688 177.515625 C 276.253906 177.09375 276.316406 176.65625 276.238281 176.195312 C 276.15625 175.734375 275.957031 175.335938 275.636719 174.996094 L 270.242188 169.179688 " fill-opacity="1" fill-rule="evenodd"/><path fill="#d0b788" d="M 233.476562 222.082031 L 233.476562 226.875 L 209.117188 240.933594 L 209.117188 236.136719 Z M 257.808594 165.253906 L 257.808594 170.050781 L 209.117188 198.164062 L 209.117188 193.367188 Z M 257.808594 155.632812 L 257.808594 160.429688 L 209.117188 188.542969 L 209.117188 183.746094 Z M 257.808594 194.175781 L 257.808594 198.972656 L 209.117188 227.085938 L 209.117188 222.292969 Z M 257.808594 184.527344 L 257.808594 189.324219 L 209.117188 217.433594 L 209.117188 212.640625 Z M 257.808594 174.90625 L 257.808594 179.699219 L 209.117188 207.8125 L 209.117188 203.019531 L 257.808594 174.90625 " fill-opacity="1" fill-rule="evenodd"/><path fill="#eddfbd" d="M 233.476562 222.082031 L 209.117188 236.136719 L 209.117188 240.933594 L 233.476562 226.875 Z M 251.816406 231.492188 L 258.945312 241.144531 L 260.113281 235.117188 L 264.132812 233.890625 L 264.132812 239.554688 L 248.757812 248.457031 L 250.375 232.75 L 250.5 232.660156 C 250.964844 232.328125 251.398438 231.949219 251.785156 231.523438 C 251.796875 231.511719 251.808594 231.5 251.816406 231.492188 Z M 243.875 232.960938 L 243.605469 235.6875 L 243.605469 235.777344 L 241.988281 252.023438 L 245.675781 246.507812 L 248.25 248.753906 L 200.28125 276.417969 L 200.28125 158.871094 L 264.132812 122.003906 L 264.132812 232.75 L 257.539062 223.878906 C 257.539062 223.839844 257.550781 223.800781 257.566406 223.757812 C 257.769531 223.460938 257.945312 223.152344 258.109375 222.832031 C 258.507812 221.929688 258.648438 221 258.527344 220.042969 L 258.527344 219.984375 C 258.308594 219.023438 258.199219 218.421875 258.199219 218.183594 C 258.199219 217.546875 258.246094 216.9375 258.347656 216.355469 C 258.449219 215.855469 258.476562 215.375 258.4375 214.917969 C 258.378906 214.476562 258.210938 214.089844 257.929688 213.75 L 257.929688 213.71875 L 257.839844 213.628906 C 257.539062 213.328125 257.160156 213.148438 256.699219 213.089844 C 256.5625 213.089844 256.429688 213.089844 256.3125 213.089844 C 255.949219 213.050781 255.769531 212.960938 255.769531 212.820312 L 255.769531 212.789062 C 255.769531 212.390625 255.679688 212.050781 255.5 211.769531 L 255.351562 211.558594 C 255.050781 211.121094 254.703125 210.800781 254.300781 210.601562 L 254.242188 210.570312 C 253.480469 210.15625 252.65625 210.191406 251.773438 210.675781 C 251.636719 210.75 251.503906 210.835938 251.367188 210.929688 C 251.125 211.109375 250.558594 211.671875 249.65625 212.609375 C 248.859375 213.429688 248.339844 213.925781 248.101562 214.109375 L 246.753906 214.738281 L 246.753906 214.796875 C 245.855469 215.136719 245.082031 215.546875 244.445312 216.027344 C 243.285156 216.886719 242.480469 217.882812 242.015625 219.023438 C 241.679688 219.503906 241.429688 220.042969 241.269531 220.644531 C 241.070312 221.402344 241.007812 222.199219 241.089844 223.039062 L 241.296875 224.539062 C 241.316406 224.738281 241.328125 224.917969 241.328125 225.078125 C 241.308594 225.476562 241.226562 225.878906 241.089844 226.277344 C 240.949219 226.757812 240.820312 227.183594 240.699219 227.566406 C 240.558594 228.042969 240.417969 228.464844 240.28125 228.824219 L 240.28125 228.855469 C 240.179688 229.253906 240.171875 229.785156 240.25 230.441406 C 240.410156 232.300781 240.960938 233.25 241.898438 233.289062 L 241.929688 233.320312 C 242.746094 233.101562 243.394531 232.980469 243.875 232.960938 Z M 257.808594 174.90625 L 209.117188 203.019531 L 209.117188 207.8125 L 257.808594 179.699219 Z M 257.808594 184.527344 L 209.117188 212.640625 L 209.117188 217.433594 L 257.808594 189.324219 Z M 257.808594 194.175781 L 209.117188 222.292969 L 209.117188 227.085938 L 257.808594 198.972656 Z M 257.808594 155.632812 L 209.117188 183.746094 L 209.117188 188.542969 L 257.808594 160.429688 Z M 257.808594 165.253906 L 209.117188 193.367188 L 209.117188 198.164062 L 257.808594 170.050781 L 257.808594 165.253906 " fill-opacity="1" fill-rule="evenodd"/><path fill="#c23d13" d="M 240.96875 227.355469 C 240.929688 227.457031 240.878906 227.605469 240.820312 227.804688 C 240.800781 227.84375 240.800781 227.894531 240.820312 227.957031 L 241.03125 227.324219 C 241.167969 226.90625 241.328125 226.378906 241.507812 225.738281 C 241.507812 225.71875 241.507812 225.699219 241.507812 225.675781 Z M 257.449219 219.503906 C 257.328125 219.703125 257.296875 219.941406 257.359375 220.222656 C 257.398438 220.722656 257.410156 221.011719 257.390625 221.09375 C 257.410156 221.371094 257.320312 221.78125 257.117188 222.320312 C 256.941406 222.839844 256.847656 223.121094 256.847656 223.160156 C 256.847656 223.21875 256.878906 223.269531 256.941406 223.308594 C 256.980469 223.351562 257.046875 223.320312 257.148438 223.21875 C 257.367188 223.082031 257.550781 222.703125 257.691406 222.082031 L 257.777344 221.179688 C 257.636719 220.703125 257.550781 220.195312 257.507812 219.652344 Z M 245.492188 218.695312 L 245.132812 219.171875 C 244.714844 219.855469 244.367188 220.492188 244.085938 221.09375 C 243.726562 221.929688 243.445312 222.761719 243.246094 223.578125 C 243.105469 224.160156 243.015625 224.707031 242.976562 225.226562 L 242.917969 225.796875 C 242.757812 227.777344 243.183594 229.242188 244.207031 230.203125 C 245.324219 231.203125 246.792969 231.339844 248.609375 230.621094 C 249.746094 230.132812 250.804688 229.367188 251.785156 228.332031 C 252.363281 227.730469 252.910156 227.035156 253.433594 226.246094 L 253.464844 226.246094 L 253.496094 226.214844 C 254.914062 224.097656 255.75 221.941406 256.011719 219.742188 C 256.210938 218.023438 256.011719 216.644531 255.410156 215.605469 C 255.230469 215.347656 255.003906 215.078125 254.722656 214.796875 L 254.691406 214.769531 C 254.171875 214.269531 253.566406 213.988281 252.863281 213.925781 C 252.523438 213.882812 252.15625 213.886719 251.773438 213.945312 C 251.316406 214.007812 250.832031 214.144531 250.316406 214.347656 C 248.558594 215.125 246.953125 216.574219 245.492188 218.695312 Z M 257.539062 223.878906 C 257 225.039062 256.128906 226.117188 254.933594 227.113281 C 254.554688 227.414062 254.003906 228.214844 253.285156 229.511719 C 252.84375 230.253906 252.355469 230.914062 251.816406 231.492188 C 251.808594 231.5 251.796875 231.511719 251.785156 231.523438 C 251.398438 231.949219 250.964844 232.328125 250.5 232.660156 L 250.375 232.75 C 249.476562 233.328125 248.519531 233.539062 247.503906 233.382812 L 247.503906 233.410156 L 246.660156 233.257812 C 246.003906 233.140625 245.234375 233.019531 244.355469 232.902344 C 244.195312 232.878906 244.035156 232.902344 243.875 232.960938 C 243.394531 232.980469 242.746094 233.101562 241.929688 233.320312 L 241.898438 233.289062 C 240.960938 233.25 240.410156 232.300781 240.25 230.441406 C 240.171875 229.785156 240.179688 229.253906 240.28125 228.855469 L 240.28125 228.824219 C 240.417969 228.464844 240.558594 228.042969 240.699219 227.566406 C 240.820312 227.183594 240.949219 226.757812 241.089844 226.277344 C 241.226562 225.878906 241.308594 225.476562 241.328125 225.078125 C 241.328125 224.917969 241.316406 224.738281 241.296875 224.539062 L 241.089844 223.039062 C 241.007812 222.199219 241.070312 221.402344 241.269531 220.644531 C 241.429688 220.042969 241.679688 219.503906 242.015625 219.023438 C 242.480469 217.882812 243.285156 216.886719 244.445312 216.027344 C 245.082031 215.546875 245.855469 215.136719 246.753906 214.796875 L 246.753906 214.738281 L 248.101562 214.109375 C 248.339844 213.925781 248.859375 213.429688 249.65625 212.609375 C 250.558594 211.671875 251.125 211.109375 251.367188 210.929688 C 251.503906 210.835938 251.636719 210.75 251.773438 210.675781 C 252.65625 210.191406 253.480469 210.15625 254.242188 210.570312 L 254.300781 210.601562 C 254.703125 210.800781 255.050781 211.121094 255.351562 211.558594 L 255.5 211.769531 C 255.679688 212.050781 255.769531 212.390625 255.769531 212.789062 L 255.769531 212.820312 C 255.769531 212.960938 255.949219 213.050781 256.3125 213.089844 C 256.429688 213.089844 256.5625 213.089844 256.699219 213.089844 C 257.160156 213.148438 257.539062 213.328125 257.839844 213.628906 L 257.929688 213.71875 L 257.929688 213.75 C 258.210938 214.089844 258.378906 214.476562 258.4375 214.917969 C 258.476562 215.375 258.449219 215.855469 258.347656 216.355469 C 258.246094 216.9375 258.199219 217.546875 258.199219 218.183594 C 258.199219 218.421875 258.308594 219.023438 258.527344 219.984375 L 258.527344 220.042969 C 258.648438 221 258.507812 221.929688 258.109375 222.832031 C 257.945312 223.152344 257.769531 223.460938 257.566406 223.757812 C 257.550781 223.800781 257.539062 223.839844 257.539062 223.878906 " fill-opacity="1" fill-rule="evenodd"/><path fill="#d54416" d="M 240.96875 227.355469 L 241.507812 225.675781 C 241.507812 225.699219 241.507812 225.71875 241.507812 225.738281 C 241.328125 226.378906 241.167969 226.90625 241.03125 227.324219 L 240.820312 227.957031 C 240.800781 227.894531 240.800781 227.84375 240.820312 227.804688 C 240.878906 227.605469 240.929688 227.457031 240.96875 227.355469 Z M 245.464844 219.414062 C 245.464844 219.433594 245.453125 219.453125 245.433594 219.472656 L 245.375 219.59375 C 245.195312 219.855469 245.003906 220.171875 244.804688 220.550781 C 244.34375 221.410156 243.984375 222.292969 243.726562 223.191406 C 243.566406 223.789062 243.457031 224.398438 243.394531 225.015625 L 243.335938 225.4375 C 243.214844 227.335938 243.625 228.726562 244.5625 229.605469 C 245.625 230.5625 246.972656 230.722656 248.609375 230.085938 C 249.746094 229.609375 250.804688 228.835938 251.785156 227.761719 C 252.253906 227.253906 252.703125 226.683594 253.132812 226.039062 C 253.152344 226.015625 253.195312 225.988281 253.253906 225.945312 C 254.570312 223.949219 255.332031 221.941406 255.53125 219.921875 C 255.730469 218.265625 255.523438 216.976562 254.902344 216.054688 C 254.761719 215.816406 254.5625 215.574219 254.300781 215.335938 L 254.152344 215.1875 C 253.574219 214.707031 252.894531 214.488281 252.117188 214.527344 C 252.003906 214.53125 251.890625 214.542969 251.773438 214.558594 C 251.324219 214.609375 250.84375 214.742188 250.316406 214.949219 C 248.640625 215.628906 247.132812 216.96875 245.792969 218.964844 L 245.761719 218.964844 Z M 245.492188 218.695312 C 246.953125 216.574219 248.558594 215.125 250.316406 214.347656 C 250.832031 214.144531 251.316406 214.007812 251.773438 213.945312 C 252.15625 213.886719 252.523438 213.882812 252.863281 213.925781 C 253.566406 213.988281 254.171875 214.269531 254.691406 214.769531 L 254.722656 214.796875 C 255.003906 215.078125 255.230469 215.347656 255.410156 215.605469 C 256.011719 216.644531 256.210938 218.023438 256.011719 219.742188 C 255.75 221.941406 254.914062 224.097656 253.496094 226.214844 L 253.464844 226.246094 L 253.433594 226.246094 C 252.910156 227.035156 252.363281 227.730469 251.785156 228.332031 C 250.804688 229.367188 249.746094 230.132812 248.609375 230.621094 C 246.792969 231.339844 245.324219 231.203125 244.207031 230.203125 C 243.183594 229.242188 242.757812 227.777344 242.917969 225.796875 L 242.976562 225.226562 C 243.015625 224.707031 243.105469 224.160156 243.246094 223.578125 C 243.445312 222.761719 243.726562 221.929688 244.085938 221.09375 C 244.367188 220.492188 244.714844 219.855469 245.132812 219.171875 Z M 257.449219 219.503906 L 257.507812 219.652344 C 257.550781 220.195312 257.636719 220.703125 257.777344 221.179688 L 257.691406 222.082031 C 257.550781 222.703125 257.367188 223.082031 257.148438 223.21875 C 257.046875 223.320312 256.980469 223.351562 256.941406 223.308594 C 256.878906 223.269531 256.847656 223.21875 256.847656 223.160156 C 256.847656 223.121094 256.941406 222.839844 257.117188 222.320312 C 257.320312 221.78125 257.410156 221.371094 257.390625 221.09375 C 257.410156 221.011719 257.398438 220.722656 257.359375 220.222656 C 257.296875 219.941406 257.328125 219.703125 257.449219 219.503906 " fill-opacity="1" fill-rule="evenodd"/><path fill="#952d0c" d="M 245.464844 219.414062 L 245.761719 218.964844 L 245.792969 218.964844 C 247.132812 216.96875 248.640625 215.628906 250.316406 214.949219 C 250.84375 214.742188 251.324219 214.609375 251.773438 214.558594 C 251.890625 214.542969 252.003906 214.53125 252.117188 214.527344 C 252.894531 214.488281 253.574219 214.707031 254.152344 215.1875 L 254.300781 215.335938 C 254.5625 215.574219 254.761719 215.816406 254.902344 216.054688 C 255.523438 216.976562 255.730469 218.265625 255.53125 219.921875 C 255.332031 221.941406 254.570312 223.949219 253.253906 225.945312 C 253.195312 225.988281 253.152344 226.015625 253.132812 226.039062 C 252.703125 226.683594 252.253906 227.253906 251.785156 227.761719 C 250.804688 228.835938 249.746094 229.609375 248.609375 230.085938 C 246.972656 230.722656 245.625 230.5625 244.5625 229.605469 C 243.625 228.726562 243.214844 227.335938 243.335938 225.4375 L 243.394531 225.015625 C 243.457031 224.398438 243.566406 223.789062 243.726562 223.191406 C 243.984375 222.292969 244.34375 221.410156 244.804688 220.550781 C 245.003906 220.171875 245.195312 219.855469 245.375 219.59375 L 245.433594 219.472656 C 245.453125 219.453125 245.464844 219.433594 245.464844 219.414062 " fill-opacity="1" fill-rule="evenodd"/><g clip-path="url(#684536fcb4)"><g clip-path="url(#ac579a9b01)"><g clip-path="url(#7488b24c3d)"><path fill="url(#d54b40157f)" d="M 252.789062 228.050781 L 241.988281 232.75 L 239.574219 256.722656 L 250.375 252.023438 Z M 252.789062 228.050781 " fill-rule="nonzero"/></g></g></g><g clip-path="url(#bbd07e9220)"><g clip-path="url(#3e4e4fa22d)"><g clip-path="url(#8ec7b5587e)"><path fill="url(#4cf2818009)" d="M 258.5 215.382812 L 245.214844 232.269531 L 258.136719 249.640625 L 271.421875 232.75 Z M 258.5 215.382812 " fill-rule="nonzero"/></g></g></g><path fill="#a49464" d="M 277.734375 96.589844 L 186.675781 149.191406 L 186.644531 303.421875 L 277.703125 250.824219 Z M 279.382812 95.628906 L 279.382812 251.84375 L 186.617188 305.402344 L 186.644531 149.160156 L 279.382812 95.628906 " fill-opacity="1" fill-rule="evenodd"/></svg>