<svg xmlns="http://www.w3.org/2000/svg" xmlns:xlink="http://www.w3.org/1999/xlink" width="300" zoomAndPan="magnify" viewBox="0 0 375 374.999991" height="200" preserveAspectRatio="xMidYMid meet" version="1.0"><defs><clipPath id="dd30812a5c"><path d="M 19.933594 74.164062 L 355.183594 74.164062 L 355.183594 300.664062 L 19.933594 300.664062 Z M 19.933594 74.164062 " clip-rule="nonzero"/></clipPath></defs><path fill="#000000" d="M 59.308594 141.621094 C 63.746094 136.195312 62.167969 129.621094 64.460938 122.046875 C 66.75 114.476562 66.035156 98.757812 66.171875 95.902344 C 66.3125 93.042969 68.75 86.902344 72.324219 82.039062 C 75.898438 77.179688 85.914062 75.757812 98.214844 75.757812 C 110.515625 75.757812 117.527344 89.902344 118.808594 93.472656 C 120.09375 97.046875 120.523438 100.898438 119.378906 100.898438 C 118.234375 100.898438 112.660156 100.1875 110.085938 99.617188 C 107.507812 99.050781 108.507812 96.046875 107.9375 92.332031 C 107.371094 88.613281 104.363281 88.476562 104.363281 88.476562 C 104.648438 91.046875 101.789062 97.191406 101.789062 97.191406 C 101.789062 97.191406 89.34375 98.765625 85.628906 99.761719 C 81.910156 100.761719 81.054688 102.472656 81.054688 104.195312 C 81.054688 105.90625 81.054688 106.191406 77.914062 105.054688 C 74.769531 103.910156 72.191406 103.34375 71.046875 107.050781 C 69.902344 110.769531 75.335938 113.046875 81.054688 117.625 C 86.777344 122.195312 83.347656 125.34375 81.625 135.625 C 79.902344 145.90625 70.472656 148.480469 65.320312 149.625 C 60.167969 150.769531 50.445312 154.195312 50.445312 154.195312 C 50.445312 154.195312 54.878906 147.050781 59.308594 141.621094 Z M 230.222656 211.058594 C 230.007812 208.484375 230.871094 206.988281 230.871094 206.988281 C 245.03125 215.988281 261.121094 214.277344 261.121094 214.277344 C 261.121094 214.277344 266.910156 212.132812 269.914062 212.992188 C 272.921875 213.855469 273.136719 215.78125 272.921875 218.992188 C 272.703125 222.207031 273.78125 221.992188 273.78125 221.992188 C 281.722656 218.992188 281.292969 204.636719 277.855469 196.0625 C 274.417969 187.484375 266.484375 184.273438 258.976562 183.207031 C 251.464844 182.128906 241.601562 188.566406 235.375 190.492188 C 229.148438 192.421875 225.289062 190.277344 219.714844 191.136719 C 214.132812 192 214.5625 195.207031 213.066406 201.214844 C 211.566406 207.210938 213.925781 210.429688 217.785156 215.574219 C 221.644531 220.71875 231.300781 223.078125 231.300781 223.078125 C 231.300781 223.078125 230.4375 213.625 230.222656 211.058594 Z M 230.222656 211.058594 " fill-opacity="1" fill-rule="evenodd"/><path fill="#ffffff" d="M 119.523438 220.058594 C 119.09375 215.773438 120.601562 209.769531 120.601562 209.769531 C 122.101562 214.699219 132.1875 226.484375 137.121094 230.125 C 142.054688 233.765625 145.0625 238.480469 155.355469 233.980469 C 165.65625 229.480469 161.359375 215.980469 160.9375 207.832031 C 160.507812 199.691406 151.28125 173.117188 151.28125 173.117188 C 148.304688 173.820312 145.878906 173.746094 143.984375 173.375 C 148.007812 173.652344 152.566406 172.253906 152.566406 172.253906 C 152.566406 172.253906 151.917969 165.613281 152.566406 162.394531 C 153.210938 159.175781 159.859375 155.539062 163.503906 153.179688 C 167.148438 150.824219 166.941406 146.324219 166.941406 146.324219 C 170.378906 143.964844 176.164062 137.96875 175.949219 136.460938 C 175.734375 134.964844 173.160156 133.675781 170.585938 133.460938 C 168.007812 133.246094 166.941406 135.386719 164.148438 136.03125 C 161.359375 136.675781 161.144531 139.25 161.144531 139.25 C 161.144531 139.25 157.5 140.960938 152.996094 143.75 C 148.492188 146.539062 145.699219 145.675781 145.699219 145.675781 C 145.699219 145.675781 142.054688 134.964844 139.695312 135.179688 C 137.335938 135.394531 139.695312 141.390625 139.480469 145.675781 C 139.265625 149.960938 136.90625 153.816406 137.121094 157.894531 C 137.335938 161.964844 138.621094 170.75 138.621094 170.75 C 138.734375 170.949219 138.867188 171.132812 139.003906 171.304688 L 137.550781 175.25 C 137.550781 175.25 132.832031 163.246094 128.328125 153.601562 C 123.820312 143.957031 112.804688 144.601562 112.804688 144.601562 C 112.804688 144.601562 113.207031 145.945312 112.550781 147.925781 C 112.835938 146.152344 112.804688 144.601562 112.804688 144.601562 C 112.804688 144.601562 104.082031 143.457031 98.359375 141.890625 C 92.640625 140.324219 97.929688 128.03125 97.929688 128.03125 C 101.21875 128.460938 105.226562 128.316406 109.230469 124.3125 C 113.234375 120.3125 115.234375 109.171875 115.8125 105.882812 C 116.378906 102.597656 117.527344 100.882812 114.382812 100.738281 C 111.238281 100.59375 109.515625 100.171875 109.515625 96.882812 C 109.515625 93.597656 104.363281 86.457031 104.363281 88.453125 C 104.363281 90.449219 101.789062 97.167969 101.789062 97.167969 L 82.480469 101.023438 L 80.902344 106.453125 C 80.902344 106.453125 77.183594 104.308594 73.605469 103.878906 C 70.03125 103.449219 71.746094 109.453125 71.746094 109.453125 C 71.746094 109.453125 72.746094 111.882812 75.320312 113.738281 C 77.898438 115.597656 80.324219 116.449219 82.332031 119.316406 C 84.332031 122.171875 83.476562 125.605469 83.195312 131.601562 C 82.910156 137.597656 79.757812 142.175781 75.042969 146.03125 C 70.324219 149.886719 60.167969 151.605469 60.167969 151.605469 C 60.167969 151.605469 57.742188 152.320312 50.445312 154.179688 C 43.148438 156.035156 41.21875 163.675781 41.21875 163.675781 C 41.21875 163.675781 28.136719 227.183594 27.558594 242.328125 C 26.984375 257.472656 37.859375 255.613281 43.863281 253.902344 C 49.867188 252.1875 54.878906 247.613281 58.878906 245.183594 C 62.714844 242.859375 75.445312 231.246094 76.527344 230.257812 C 76.699219 230.28125 76.867188 230.308594 77.042969 230.324219 L 83.625 226.039062 C 83.625 226.039062 103.503906 217.609375 104.933594 213.46875 C 106.363281 209.324219 102.503906 203.179688 102.503906 203.179688 C 102.503906 203.179688 102.226562 202.796875 102.136719 202.203125 C 102.742188 203.011719 103.980469 204.730469 104.511719 205.890625 C 105.226562 207.464844 105.511719 211.75 105.078125 213.609375 C 104.648438 215.464844 102.789062 217.894531 102.789062 217.894531 C 102.789062 217.894531 107.292969 238.679688 107.9375 245.109375 C 108.585938 251.535156 103.433594 251.964844 103.433594 251.964844 C 103.433594 251.964844 65.671875 259.253906 58.59375 260.320312 C 51.511719 261.394531 51.296875 256.464844 51.296875 256.464844 C 51.296875 256.464844 46.363281 269.113281 42.933594 276.824219 C 39.496094 284.539062 38.859375 298.894531 38.859375 298.894531 L 144.625 298.25 C 143.546875 284.53125 130.464844 246.597656 130.03125 245.960938 C 129.609375 245.347656 119.953125 224.34375 119.523438 220.058594 Z M 87.945312 161.136719 C 76.28125 162.585938 68.25 158.371094 63.929688 155.09375 C 69.6875 158.59375 80.003906 160.730469 87.945312 161.136719 Z M 73.277344 228.921875 C 73.960938 229.441406 74.746094 229.847656 75.660156 230.09375 C 74.769531 229.917969 73.976562 229.511719 73.277344 228.921875 Z M 88.058594 194.910156 C 87.492188 193.195312 85.199219 191.191406 84.625 192.050781 C 84.046875 192.914062 83.046875 198.339844 81.480469 201.050781 C 79.902344 203.761719 77.757812 205.335938 77.191406 207.765625 C 76.621094 210.191406 75.613281 213.90625 75.613281 213.90625 L 68.894531 216.480469 C 68.894531 216.480469 68.789062 219.742188 69.742188 223.105469 C 68.554688 219.757812 68.179688 216.480469 68.179688 216.480469 L 46.871094 225.195312 C 46.871094 225.195312 41.71875 194.195312 41.152344 191.191406 C 40.582031 188.191406 43.441406 186.332031 43.441406 186.332031 C 43.441406 186.332031 87.636719 177.617188 90.78125 177.476562 C 93.925781 177.339844 94.5 180.050781 94.5 180.050781 L 98.652344 196.90625 C 98.652344 196.90625 99.261719 196.835938 100.089844 196.828125 C 96.714844 197.25 91.949219 198.347656 89.074219 200.476562 C 89.058594 200.484375 88.628906 196.621094 88.058594 194.910156 Z M 102.113281 201.628906 C 102.160156 201.113281 102.367188 200.523438 102.925781 199.90625 C 103.574219 199.203125 104.140625 198.527344 104.410156 197.964844 C 104.503906 198.082031 104.585938 198.203125 104.648438 198.332031 C 105.347656 199.96875 103.003906 201.222656 102.113281 201.628906 Z M 226.363281 169.691406 C 225.289062 168.191406 226.796875 165.621094 226.796875 165.621094 L 241.386719 166.265625 C 241.386719 166.265625 242.03125 168.621094 242.246094 171.195312 C 242.460938 173.769531 238.601562 172.269531 237.527344 174.414062 C 236.449219 176.554688 234.953125 177.847656 231.738281 176.984375 C 228.523438 176.125 231.308594 174.628906 228.300781 173.347656 C 225.289062 172.046875 226.363281 169.691406 226.363281 169.691406 Z M 229.792969 207.839844 C 248.671875 217.054688 260.898438 214.484375 260.898438 214.484375 C 260.898438 214.484375 267.761719 211.050781 271.40625 214.054688 C 275.050781 217.054688 272.199219 219.605469 271.191406 222.625 C 270.976562 223.269531 278.699219 223.699219 278.699219 223.699219 C 278.699219 223.699219 275.910156 234.410156 271.40625 239.339844 C 266.902344 244.269531 262.609375 246.628906 257.03125 246.414062 C 251.449219 246.199219 252.523438 238.695312 252.523438 238.695312 C 227.648438 240.199219 229.792969 207.839844 229.792969 207.839844 Z M 266.261719 277.0625 C 261.757812 272.347656 259.613281 267.417969 254.675781 263.5625 C 249.742188 259.707031 241.378906 252.847656 232.582031 259.277344 C 232.582031 259.277344 228.941406 263.5625 231.9375 264.207031 C 234.945312 264.851562 236.875 264.421875 234.730469 267.207031 C 232.582031 269.996094 231.722656 273.851562 236.660156 273.851562 C 238.15625 274.066406 236.441406 276.640625 238.804688 278.136719 C 241.164062 279.632812 240.300781 280.277344 242.664062 278.78125 C 245.023438 277.285156 246.519531 277.285156 246.519531 277.285156 C 246.519531 277.285156 243.300781 282 245.875 283.28125 C 248.449219 284.5625 251.457031 281.785156 251.457031 281.785156 C 251.457031 281.785156 251.671875 287.78125 254.675781 288.425781 C 255.117188 288.519531 255.617188 288.585938 256.160156 288.640625 L 236.660156 288.640625 L 236.011719 283.28125 L 220.570312 245.777344 C 220.570312 245.777344 215.417969 244.0625 211.34375 244.492188 C 207.269531 244.921875 148.484375 245.136719 148.484375 245.136719 C 148.484375 245.136719 142.480469 247.710938 144.839844 251.566406 L 160.285156 290.140625 L 163.925781 291.636719 C 163.925781 291.636719 163.496094 297.847656 166.070312 298.707031 C 168.648438 299.570312 263.042969 299.140625 263.042969 299.140625 C 263.042969 299.140625 265.277344 297.855469 266.371094 295.667969 C 266.292969 296.21875 266.253906 296.566406 266.253906 296.566406 L 273.335938 297.425781 C 273.335938 297.425781 277.410156 295.070312 277.410156 289.285156 C 277.410156 283.503906 276.980469 281.570312 276.980469 281.570312 C 276.980469 281.570312 270.765625 281.777344 266.261719 277.0625 Z M 266.402344 290.644531 C 266.800781 291.191406 267.046875 291.820312 266.910156 292.488281 C 266.792969 291.734375 266.609375 291.128906 266.402344 290.644531 Z M 266.402344 290.644531 " fill-opacity="1" fill-rule="evenodd"/><path fill="#ff3131" d="M 75.613281 213.914062 C 75.613281 213.914062 51.582031 220.917969 46.578125 226.203125 L 40.996094 190.339844 C 40.996094 190.339844 42.710938 185.625 47.429688 184.910156 C 52.152344 184.195312 91.34375 177.625 91.34375 177.625 C 91.34375 177.625 95.203125 178.621094 95.917969 182.621094 C 96.632812 186.625 98.777344 196.054688 98.777344 196.054688 L 87.761719 201.199219 C 87.761719 201.199219 89.621094 197.34375 88.042969 194.910156 C 86.46875 192.476562 84.609375 192.050781 84.609375 192.050781 C 84.609375 192.050781 82.746094 199.769531 81.464844 201.050781 C 80.179688 202.335938 76.890625 206.628906 76.597656 208.90625 C 76.328125 211.195312 75.613281 213.914062 75.613281 213.914062 Z M 102.359375 216.910156 C 98.351562 221.625 80.472656 227.339844 80.472656 227.339844 C 76.898438 232.484375 50.292969 251.480469 50.292969 251.480469 C 52.867188 261.910156 57.300781 261.480469 57.300781 261.480469 C 57.300781 261.480469 97.207031 254.476562 103.496094 252.765625 C 109.785156 251.050781 107.785156 245.621094 107.785156 245.621094 Z M 226.789062 165.621094 L 241.378906 166.265625 C 241.378906 166.265625 247.167969 153.832031 247.597656 149.117188 C 248.027344 144.402344 244.808594 138.828125 238.371094 136.261719 C 231.9375 133.691406 228.285156 136.476562 223.144531 140.117188 C 217.992188 143.757812 219.285156 150.832031 220.566406 155.332031 C 221.859375 159.839844 226.789062 165.621094 226.789062 165.621094 Z M 339.632812 282.628906 C 339.203125 274.058594 326.332031 254.125 312.171875 238.480469 C 298.011719 222.839844 278.707031 223.691406 278.707031 223.691406 C 278.707031 223.691406 277.210938 227.546875 274.632812 233.980469 C 272.058594 240.410156 264.546875 245.984375 258.757812 246.835938 C 252.972656 247.695312 252.539062 238.695312 252.539062 238.695312 C 242.238281 240.191406 235.589844 232.699219 235.589844 232.699219 C 235.589844 232.699219 233.445312 233.980469 228.292969 237.414062 C 223.144531 240.847656 220.570312 247.273438 220.570312 247.273438 L 231.507812 271.699219 L 234.730469 267.199219 C 234.730469 267.199219 234.730469 265.488281 231.9375 264.199219 C 229.148438 262.914062 232.582031 259.269531 232.582031 259.269531 C 241.59375 251.335938 259.183594 265.265625 263.902344 273.628906 C 268.621094 281.984375 276.988281 281.5625 276.988281 281.5625 C 276.988281 281.5625 276.988281 283.703125 277.417969 289.277344 C 277.847656 294.855469 273.34375 297.417969 273.34375 297.417969 L 280.851562 299.347656 C 280.851562 299.347656 328.90625 299.132812 332.765625 297.632812 C 336.632812 296.136719 340.0625 291.207031 339.632812 282.628906 Z M 248.027344 284.347656 C 245.882812 283.488281 243.953125 281.777344 244.808594 279.847656 C 245.667969 277.921875 245.667969 277.921875 245.667969 277.921875 C 245.667969 277.921875 245.238281 276.207031 243.523438 277.277344 C 241.808594 278.351562 240.949219 279.847656 238.804688 278.136719 C 236.65625 276.421875 239.234375 273.851562 239.234375 273.851562 L 231.9375 274.496094 L 236.441406 285.855469 L 236.65625 288.640625 L 254.675781 288.425781 L 251.457031 281.785156 C 251.464844 281.777344 250.171875 285.199219 248.027344 284.347656 Z M 248.027344 284.347656 " fill-opacity="1" fill-rule="evenodd"/><path fill="#000000" d="M 223.351562 161.664062 C 223.726562 162.234375 225.378906 165.136719 225.75 166.1875 C 225.742188 166.210938 225.742188 166.234375 225.742188 166.257812 C 225.121094 166.996094 224.605469 168.007812 224.703125 169.089844 C 224.757812 169.667969 224.980469 170.191406 225.351562 170.628906 C 225.105469 171.371094 225.035156 172.246094 225.386719 173.023438 C 225.734375 173.785156 226.425781 174.289062 227.332031 174.453125 C 228.09375 174.582031 228.902344 174.683594 229.722656 174.765625 C 229.761719 176.71875 231.363281 178.300781 233.320312 178.300781 L 234.796875 178.300781 C 236.789062 178.300781 238.410156 176.679688 238.410156 174.699219 L 238.410156 174.535156 C 238.410156 174.535156 238.410156 174.527344 238.410156 174.527344 C 238.59375 174.496094 238.789062 174.472656 238.964844 174.445312 C 239.347656 174.375 242.707031 173.699219 243.308594 171.648438 C 243.429688 171.234375 243.507812 170.488281 242.929688 169.667969 C 243.132812 168.984375 243.300781 167.925781 242.929688 166.980469 C 242.785156 166.609375 242.570312 166.289062 242.292969 166.019531 C 242.429688 163.722656 243.730469 161.757812 245.105469 159.683594 C 246.503906 157.589844 247.957031 155.421875 248.304688 152.726562 C 248.621094 150.285156 248.40625 147.652344 247.699219 145.117188 C 246.027344 139.195312 241.707031 135.082031 236.425781 134.375 C 231.667969 133.742188 226.742188 135.210938 223.226562 138.304688 C 219.960938 141.167969 218.167969 145.140625 218.175781 149.480469 C 218.167969 153.824219 220.730469 157.886719 223.351562 161.664062 Z M 231.898438 153.648438 C 232.539062 153.425781 233.183594 153.125 233.828125 152.734375 C 234.476562 153.125 235.128906 153.425781 235.757812 153.648438 C 234.9375 157.351562 235.429688 163.515625 235.597656 165.304688 C 234.214844 165.320312 233.046875 165.328125 232.0625 165.335938 C 232.222656 163.59375 232.722656 157.367188 231.898438 153.648438 Z M 240.53125 167.5625 C 240.671875 167.632812 240.734375 167.710938 240.769531 167.792969 C 240.902344 168.125 240.800781 168.707031 240.664062 169.136719 L 227.109375 169.136719 C 227.019531 169.03125 227.003906 168.9375 227.003906 168.882812 C 226.972656 168.554688 227.210938 168.070312 227.5625 167.679688 C 230.023438 167.664062 238.273438 167.585938 240.53125 167.5625 Z M 234.78125 175.988281 L 233.304688 175.988281 C 232.660156 175.988281 232.128906 175.519531 232.023438 174.90625 C 232.375 174.914062 232.738281 174.925781 233.089844 174.925781 C 234.097656 174.925781 235.097656 174.890625 236.066406 174.804688 C 236.011719 175.464844 235.457031 175.988281 234.78125 175.988281 Z M 238.527344 172.164062 C 235.289062 172.761719 231.046875 172.769531 227.71875 172.179688 C 227.578125 172.15625 227.496094 172.117188 227.472656 172.0625 C 227.417969 171.941406 227.433594 171.710938 227.503906 171.441406 L 240.523438 171.441406 C 240.046875 171.726562 239.308594 172.023438 238.527344 172.164062 Z M 224.726562 140.019531 C 227.289062 137.769531 230.730469 136.515625 234.214844 136.515625 C 234.84375 136.515625 235.472656 136.554688 236.105469 136.640625 C 240.523438 137.222656 244.023438 140.617188 245.460938 145.714844 C 246.089844 147.957031 246.273438 150.269531 246.007812 152.414062 C 245.730469 154.570312 244.492188 156.421875 243.175781 158.386719 C 241.785156 160.476562 240.347656 162.617188 240.019531 165.257812 C 239.273438 165.265625 238.574219 165.273438 237.910156 165.28125 C 237.589844 161.980469 237.394531 156.75 238.003906 154.101562 C 240.003906 154.222656 241.722656 153.546875 242.792969 152.425781 C 243.867188 151.292969 244.039062 149.816406 243.207031 148.757812 C 242.386719 147.710938 241.5 147.527344 240.894531 147.566406 C 239.332031 147.652344 238.042969 149.195312 236.597656 151.492188 C 235.941406 151.277344 235.25 150.929688 234.527344 150.429688 C 234.390625 150.332031 234.238281 150.253906 234.074219 150.222656 C 234.074219 150.222656 234.066406 150.222656 234.066406 150.222656 C 234.019531 150.214844 233.96875 150.207031 233.921875 150.207031 C 233.890625 150.207031 233.859375 150.199219 233.828125 150.199219 C 233.8125 150.199219 233.789062 150.199219 233.777344 150.207031 C 233.542969 150.214844 233.320312 150.300781 233.136719 150.4375 C 232.414062 150.9375 231.722656 151.277344 231.070312 151.492188 C 229.625 149.1875 228.332031 147.652344 226.773438 147.566406 C 226.171875 147.535156 225.289062 147.710938 224.457031 148.757812 C 223.628906 149.808594 223.796875 151.285156 224.875 152.425781 C 225.941406 153.546875 227.65625 154.222656 229.664062 154.101562 C 230.269531 156.765625 230.078125 162.058594 229.746094 165.359375 C 228.902344 165.367188 228.300781 165.375 227.871094 165.375 C 227.226562 163.308594 225.28125 160.398438 225.257812 160.359375 C 222.84375 156.875 220.476562 153.15625 220.46875 149.457031 C 220.453125 145.792969 221.96875 142.445312 224.726562 140.019531 Z M 239.1875 151.75 C 240.324219 150.109375 240.839844 149.878906 241.023438 149.871094 C 241.070312 149.871094 241.210938 149.953125 241.394531 150.183594 C 241.507812 150.332031 241.292969 150.660156 241.117188 150.84375 C 240.734375 151.253906 240.054688 151.613281 239.1875 151.75 Z M 228.472656 151.75 C 227.59375 151.613281 226.925781 151.253906 226.550781 150.84375 C 226.371094 150.660156 226.15625 150.332031 226.273438 150.183594 C 226.457031 149.953125 226.59375 149.871094 226.640625 149.871094 C 226.816406 149.878906 227.332031 150.109375 228.472656 151.75 Z M 228.472656 151.75 " fill-opacity="1" fill-rule="nonzero"/><path fill="#000000" d="M 210.351562 153.980469 C 209.714844 153.878906 209.128906 154.300781 209.023438 154.921875 C 208.914062 155.554688 209.34375 156.144531 209.96875 156.25 L 214.808594 157.058594 C 214.871094 157.066406 214.941406 157.074219 215.003906 157.074219 C 215.554688 157.074219 216.046875 156.675781 216.140625 156.113281 C 216.246094 155.484375 215.816406 154.894531 215.195312 154.785156 Z M 210.351562 153.980469 " fill-opacity="1" fill-rule="nonzero"/><path fill="#000000" d="M 214.773438 130.773438 L 218.683594 133.738281 C 218.890625 133.898438 219.136719 133.964844 219.382812 133.964844 C 219.730469 133.964844 220.078125 133.804688 220.308594 133.515625 C 220.691406 133.007812 220.589844 132.285156 220.085938 131.902344 L 216.171875 128.9375 C 215.664062 128.554688 214.941406 128.652344 214.558594 129.160156 C 214.164062 129.667969 214.265625 130.386719 214.773438 130.773438 Z M 214.773438 130.773438 " fill-opacity="1" fill-rule="nonzero"/><path fill="#000000" d="M 257.054688 153.441406 L 252.210938 154.246094 C 251.578125 154.355469 251.15625 154.945312 251.265625 155.574219 C 251.355469 156.136719 251.847656 156.535156 252.402344 156.535156 C 252.464844 156.535156 252.53125 156.527344 252.59375 156.519531 L 257.4375 155.714844 C 258.066406 155.605469 258.492188 155.015625 258.382812 154.386719 C 258.273438 153.765625 257.675781 153.339844 257.054688 153.441406 Z M 257.054688 153.441406 " fill-opacity="1" fill-rule="nonzero"/><path fill="#000000" d="M 206.960938 141.453125 L 213.417969 143.871094 C 213.550781 143.925781 213.6875 143.949219 213.828125 143.949219 C 214.296875 143.949219 214.734375 143.664062 214.902344 143.203125 C 215.125 142.605469 214.824219 141.945312 214.226562 141.722656 L 207.769531 139.304688 C 207.175781 139.082031 206.507812 139.378906 206.285156 139.980469 C 206.0625 140.570312 206.371094 141.230469 206.960938 141.453125 Z M 206.960938 141.453125 " fill-opacity="1" fill-rule="nonzero"/><path fill="#000000" d="M 247.160156 133.644531 C 247.40625 133.644531 247.644531 133.566406 247.859375 133.414062 L 251.773438 130.449219 C 252.277344 130.066406 252.378906 129.34375 251.996094 128.835938 C 251.609375 128.332031 250.886719 128.230469 250.378906 128.613281 L 246.46875 131.578125 C 245.960938 131.960938 245.859375 132.683594 246.246094 133.191406 C 246.460938 133.484375 246.804688 133.644531 247.160156 133.644531 Z M 247.160156 133.644531 " fill-opacity="1" fill-rule="nonzero"/><path fill="#000000" d="M 251.632812 142.875 C 251.808594 143.335938 252.25 143.621094 252.710938 143.621094 C 252.839844 143.621094 252.980469 143.597656 253.117188 143.542969 L 259.574219 141.125 C 260.175781 140.902344 260.472656 140.234375 260.25 139.640625 C 260.027344 139.050781 259.359375 138.742188 258.765625 138.964844 L 252.308594 141.386719 C 251.710938 141.617188 251.410156 142.277344 251.632812 142.875 Z M 251.632812 142.875 " fill-opacity="1" fill-rule="nonzero"/><path fill="#000000" d="M 234.328125 130.789062 C 234.96875 130.789062 235.480469 130.273438 235.480469 129.636719 L 235.480469 122.109375 C 235.480469 121.472656 234.96875 120.957031 234.328125 120.957031 C 233.691406 120.957031 233.175781 121.472656 233.175781 122.109375 L 233.175781 129.636719 C 233.175781 130.273438 233.691406 130.789062 234.328125 130.789062 Z M 234.328125 130.789062 " fill-opacity="1" fill-rule="nonzero"/><g clip-path="url(#dd30812a5c)"><path fill="#000000" d="M 354.046875 298.195312 L 334.097656 298.195312 C 335.464844 297.148438 336.71875 295.789062 337.75 294.195312 C 340.476562 289.945312 341.246094 284.625 339.910156 279.210938 C 337.101562 267.839844 317.738281 239.378906 304.714844 229.839844 C 295.789062 223.300781 283.605469 221.960938 276.511719 221.792969 C 278.753906 219.867188 280.347656 216.554688 281.007812 212.292969 C 282.296875 203.984375 279.816406 192.289062 272.679688 186.992188 C 261.164062 178.4375 249.3125 182.546875 243.277344 185.753906 C 242.484375 186.175781 241.761719 186.570312 241.078125 186.9375 C 236.097656 189.648438 233.820312 190.894531 227.371094 190.054688 C 223.25 189.519531 218.625 189.324219 215.449219 191.921875 C 213.179688 193.773438 211.933594 196.78125 211.628906 201.152344 C 210.820312 218.683594 227.402344 223.167969 230.953125 223.929688 C 231.824219 226.914062 233.023438 229.828125 234.675781 232.199219 C 225.472656 236.859375 222.042969 242.128906 220.792969 245.132812 C 219.761719 244.203125 218.402344 243.664062 216.949219 243.664062 C 216.941406 243.664062 216.925781 243.664062 216.917969 243.664062 L 149.527344 244.039062 C 147.628906 244.046875 145.855469 244.992188 144.785156 246.566406 C 143.71875 248.140625 143.492188 250.128906 144.1875 251.902344 L 158.613281 288.792969 C 159.34375 290.652344 160.9375 291.949219 162.835938 292.335938 L 162.835938 293.671875 C 162.835938 295.4375 163.589844 297.035156 164.8125 298.203125 L 146.085938 298.203125 C 142.554688 273.511719 126.144531 234.664062 121.152344 223.246094 C 120.308594 221.316406 120.03125 219.199219 120.332031 217.125 L 120.953125 212.894531 C 126.128906 223.046875 139.875 237.574219 149.773438 237.574219 C 150.628906 237.574219 151.449219 237.46875 152.242188 237.238281 C 163.160156 234.089844 163.527344 224.851562 162.941406 214.84375 C 162.511719 207.535156 159.183594 193.128906 153.058594 172.023438 L 153.035156 171.949219 C 151.289062 165.933594 153.289062 161.035156 158.984375 157.378906 C 164.910156 153.570312 166.402344 152.203125 167.140625 147.652344 C 169.261719 146.191406 175.765625 141.515625 176.625 138.511719 C 177.035156 137.078125 176.671875 136.046875 176.296875 135.433594 C 175.980469 134.917969 175.550781 134.535156 175.121094 134.242188 C 174.949219 134.035156 174.703125 133.890625 174.429688 133.84375 C 174.027344 133.660156 173.675781 133.542969 173.4375 133.484375 C 170.117188 131.226562 166.179688 133.859375 164.648438 135.085938 C 164.265625 134.933594 163.859375 134.863281 163.417969 134.902344 C 161.484375 135.050781 160.890625 136.539062 160.675781 138.265625 L 160.03125 138.71875 C 155.839844 141.628906 151.257812 143.910156 146.421875 145.523438 C 146.292969 144.839844 146.144531 144.101562 145.96875 143.304688 C 145.414062 140.808594 143.480469 135.324219 141.035156 134.304688 C 140.363281 134.019531 139.671875 134.074219 139.082031 134.433594 C 137.480469 135.433594 137.8125 137.34375 138.160156 139.363281 C 138.414062 140.839844 138.726562 142.667969 138.542969 144.742188 C 138.390625 146.484375 137.84375 148.363281 137.3125 150.191406 C 136.375 153.425781 135.398438 156.773438 136.460938 159.792969 C 137.460938 162.640625 137.765625 165.589844 137.40625 170.789062 C 134.300781 162.074219 127.8125 148.050781 121.292969 145.078125 C 117.496094 143.34375 112.445312 143.019531 107.976562 142.738281 C 103.796875 142.46875 99.476562 142.191406 98.34375 140.714844 C 96.585938 138.414062 97.382812 132.363281 98.070312 129.136719 C 101.375 129.917969 104.371094 129.414062 106.984375 127.625 C 115.128906 122.035156 116.886719 105.53125 117.195312 101.589844 C 118.0625 101.683594 118.839844 101.851562 119.441406 102.152344 C 119.816406 102.34375 120.261719 102.3125 120.609375 102.082031 C 120.953125 101.851562 121.148438 101.445312 121.109375 101.03125 C 121.085938 100.761719 120.507812 94.449219 117.140625 87.992188 C 112.613281 79.3125 105.21875 74.644531 95.738281 74.476562 C 84.109375 74.269531 76 76.804688 70.992188 82.253906 C 66.835938 86.785156 64.773438 93.3125 64.519531 102.796875 C 64.136719 117.257812 63.550781 139.097656 49.820312 153.679688 C 49.652344 153.769531 49.484375 153.863281 49.324219 153.957031 C 43.886719 156.988281 40.472656 160.960938 39.175781 165.75 C 36.445312 175.824219 32.511719 201.367188 29.902344 218.269531 C 28.933594 224.558594 28.167969 229.535156 27.707031 232.144531 C 27.027344 235.953125 25.285156 248.816406 31.058594 254.292969 C 32.777344 255.929688 34.976562 256.75 37.605469 256.75 C 38.699219 256.75 39.875 256.613281 41.113281 256.320312 C 43.695312 255.726562 46.671875 254.421875 49.816406 252.679688 L 50.292969 255.476562 C 48.691406 258.421875 38.523438 277.929688 38.351562 298.1875 L 21.085938 298.1875 C 20.449219 298.1875 19.933594 298.699219 19.933594 299.339844 C 19.933594 299.976562 20.449219 300.492188 21.085938 300.492188 L 354.046875 300.492188 C 354.683594 300.492188 355.199219 299.976562 355.199219 299.339844 C 355.199219 298.699219 354.675781 298.195312 354.046875 298.195312 Z M 253.878906 239.394531 C 255.5 238.828125 258.96875 237.542969 261.820312 234.488281 C 262.25 234.019531 262.226562 233.289062 261.757812 232.859375 C 261.289062 232.429688 260.566406 232.453125 260.128906 232.921875 C 257.574219 235.671875 254.339844 236.800781 252.957031 237.28125 C 252.886719 237.304688 252.839844 237.320312 252.785156 237.34375 C 252.695312 237.34375 252.59375 237.359375 252.503906 237.382812 C 252.457031 237.398438 247.511719 238.710938 239.972656 234.210938 C 232.515625 229.765625 231.222656 213.976562 231 209 C 233.722656 210.644531 239.570312 213.5625 248.429688 214.929688 C 248.273438 215.097656 248.128906 215.28125 247.996094 215.488281 C 247.9375 215.597656 247.921875 215.734375 247.980469 215.859375 C 248.074219 216.050781 248.3125 216.132812 248.503906 216.042969 L 248.566406 216.011719 C 248.972656 215.820312 249.410156 215.621094 249.820312 215.488281 C 250.21875 215.367188 250.609375 215.289062 251.003906 215.265625 C 251.480469 215.320312 251.957031 215.367188 252.449219 215.414062 C 252.792969 215.488281 253.140625 215.605469 253.539062 215.703125 L 253.609375 215.71875 C 253.769531 215.757812 253.953125 215.71875 254.09375 215.597656 C 254.109375 215.582031 254.117188 215.558594 254.132812 215.542969 C 256.269531 215.679688 258.542969 215.71875 260.957031 215.636719 C 261.1875 215.628906 261.417969 215.542969 261.605469 215.40625 C 261.820312 215.242188 266.953125 211.496094 270.835938 214.660156 C 273.925781 217.179688 269.984375 222.292969 269.945312 222.339844 C 269.660156 222.699219 269.621094 223.191406 269.835938 223.597656 C 270.050781 224.003906 270.492188 224.226562 270.953125 224.199219 C 271.019531 224.191406 273.328125 224.011719 276.824219 224.128906 C 274.203125 238.152344 264.101562 245.898438 257.984375 245.898438 C 256.691406 245.898438 255.738281 245.515625 255.0625 244.730469 C 253.855469 243.328125 253.769531 240.832031 253.878906 239.394531 Z M 222.519531 218.0625 C 216.484375 214.199219 213.597656 208.539062 213.925781 201.273438 C 214.1875 197.605469 215.164062 195.125 216.910156 193.695312 C 218.890625 192.074219 221.929688 191.667969 227.070312 192.335938 C 234.257812 193.265625 237.074219 191.738281 242.179688 188.957031 C 242.855469 188.589844 243.570312 188.199219 244.351562 187.78125 C 251.140625 184.171875 261.328125 181.433594 271.296875 188.835938 C 277.710938 193.597656 279.914062 204.292969 278.722656 211.933594 C 277.984375 216.695312 276.046875 219.980469 273.390625 221.027344 C 274.558594 218.421875 275.019531 215.105469 272.28125 212.878906 C 267.578125 209.046875 261.910156 212.410156 260.519531 213.347656 C 241.15625 213.921875 230.746094 206.082031 230.648438 206.003906 C 230.148438 205.613281 229.417969 205.707031 229.03125 206.203125 C 228.863281 206.421875 228.792969 206.671875 228.792969 206.925781 C 228.703125 207.097656 228.648438 207.28125 228.648438 207.488281 C 228.648438 207.988281 228.703125 214.535156 230.300781 221.402344 C 228.488281 220.933594 225.464844 219.941406 222.519531 218.0625 Z M 236.144531 234.027344 C 236.933594 234.871094 237.8125 235.609375 238.78125 236.183594 C 244.722656 239.726562 249.265625 240.007812 251.542969 239.839844 C 251.480469 241.558594 251.679688 244.332031 253.285156 246.214844 C 254.410156 247.535156 255.976562 248.203125 257.96875 248.203125 C 265.09375 248.203125 276.347656 239.871094 279.132812 224.234375 C 286.066406 224.679688 296.011719 226.324219 303.339844 231.691406 C 315.777344 240.808594 334.988281 268.960938 337.65625 279.757812 C 338.839844 284.546875 338.179688 289.234375 335.796875 292.941406 C 334.050781 295.652344 331.492188 297.617188 329.121094 298.0625 C 329 298.085938 328.890625 298.132812 328.792969 298.1875 L 285.3125 298.1875 C 282.3125 297.910156 279.277344 297.402344 276.539062 296.835938 C 280.246094 291.3125 278.671875 285.402344 277.695312 282.890625 C 278.453125 282.921875 279.269531 282.9375 280.144531 282.9375 C 280.699219 282.9375 281.277344 282.929688 281.875 282.921875 C 295.652344 282.636719 313.140625 280.5 313.316406 280.484375 C 313.949219 280.410156 314.402344 279.832031 314.324219 279.203125 C 314.246094 278.574219 313.65625 278.128906 313.039062 278.199219 C 312.988281 278.207031 311.257812 278.414062 308.480469 278.710938 C 303.394531 271.132812 296.566406 262.292969 296.496094 262.210938 C 296.105469 261.703125 295.382812 261.617188 294.882812 262.003906 C 294.375 262.394531 294.285156 263.117188 294.675781 263.613281 C 294.746094 263.699219 300.933594 271.714844 305.882812 278.980469 C 299.535156 279.625 290.015625 280.449219 281.835938 280.617188 C 270.796875 280.847656 269.238281 278.980469 265.816406 274.894531 C 265.125 274.066406 264.339844 273.136719 263.402344 272.125 C 262.617188 271.277344 261.820312 270.394531 261.003906 269.496094 C 256.039062 264 250.410156 257.769531 243.800781 256.210938 C 236.320312 254.453125 232.128906 258.738281 231.570312 259.367188 C 230.578125 260.21875 229.15625 262.308594 230.347656 264.707031 C 230.914062 265.835938 232.175781 266.21875 233.644531 266.21875 C 233.667969 266.21875 233.691406 266.21875 233.714844 266.21875 C 232.5625 267.507812 231.875 268.867188 231.570312 270.074219 L 222.429688 247.550781 C 222.691406 246.230469 224.621094 239.71875 236.144531 234.027344 Z M 165.132812 292.457031 L 232.070312 292.457031 C 233.992188 292.457031 235.78125 291.503906 236.851562 289.917969 C 236.859375 289.902344 236.867188 289.886719 236.882812 289.871094 C 236.949219 289.886719 237.011719 289.894531 237.089844 289.894531 L 264.046875 289.894531 C 264.632812 289.894531 265.109375 290.292969 265.109375 290.785156 L 265.109375 294.371094 C 265.109375 294.570312 265.078125 294.753906 265.046875 294.945312 C 265.039062 294.960938 265.03125 294.976562 265.023438 294.992188 C 265 295.078125 264.988281 295.152344 264.980469 295.238281 C 264.546875 296.742188 263.035156 297.863281 261.226562 297.863281 L 169.792969 297.863281 C 167.226562 297.863281 165.140625 295.976562 165.140625 293.664062 L 165.140625 292.457031 Z M 238.433594 279.527344 C 239.671875 280.539062 241.839844 280.746094 243.867188 278.910156 C 244.238281 278.582031 244.644531 278.28125 245.082031 278.011719 C 244.332031 278.964844 243.769531 280.03125 243.691406 281.125 C 243.625 282.007812 243.839844 283.289062 245.253906 284.394531 C 246.691406 285.515625 248.003906 285.554688 248.851562 285.386719 C 249.734375 285.207031 250.480469 284.761719 251.070312 284.257812 C 251.578125 285.578125 252.347656 286.707031 253.085938 287.574219 L 237.757812 287.574219 C 237.917969 286.558594 237.8125 285.507812 237.410156 284.523438 L 233.558594 275.042969 C 234.757812 275.546875 236.105469 275.511719 237.242188 275.300781 C 236.804688 277.292969 237.496094 278.765625 238.433594 279.527344 Z M 264.046875 287.582031 L 256.351562 287.582031 C 255.691406 287.035156 253.210938 284.808594 252.863281 281.960938 C 252.863281 281.929688 252.871094 281.90625 252.878906 281.875 C 252.964844 281.820312 253.769531 281.398438 256.53125 282.550781 C 257.121094 282.796875 257.789062 282.519531 258.035156 281.929688 C 258.28125 281.347656 258.007812 280.671875 257.414062 280.425781 C 254.761719 279.320312 252.878906 279.15625 251.65625 279.925781 C 251.042969 280.308594 250.71875 280.871094 250.59375 281.339844 C 250.257812 281.867188 249.394531 282.9375 248.398438 283.128906 C 247.84375 283.226562 247.273438 283.058594 246.675781 282.582031 C 246.023438 282.074219 245.96875 281.628906 245.992188 281.300781 C 246.105469 279.75 248.535156 277.589844 250.25 276.640625 C 250.378906 276.5625 250.585938 276.445312 250.78125 276.285156 C 252.410156 275.941406 254.402344 275.671875 256.09375 275.917969 C 256.714844 276.015625 257.308594 275.578125 257.398438 274.949219 C 257.492188 274.320312 257.0625 273.734375 256.429688 273.644531 C 254.460938 273.351562 252.234375 273.636719 250.410156 274.011719 C 248.933594 273.628906 244.597656 275.15625 242.324219 277.214844 C 241.449219 278.003906 240.472656 278.226562 239.902344 277.753906 C 239.296875 277.253906 239.15625 275.96875 240.164062 274.203125 C 240.847656 273.582031 245.359375 269.851562 253.378906 272.03125 C 253.984375 272.199219 254.625 271.839844 254.792969 271.226562 C 254.960938 270.609375 254.601562 269.980469 253.984375 269.8125 C 244.898438 267.339844 239.640625 271.5625 238.59375 272.515625 C 237.621094 272.921875 235.289062 273.613281 234.050781 272.707031 C 233.722656 272.460938 233.582031 271.847656 233.691406 271.101562 C 233.992188 269.058594 235.9375 266.425781 239.617188 264.9375 C 239.710938 264.90625 239.792969 264.867188 239.878906 264.835938 C 241.441406 264.367188 245.476562 263.707031 251.117188 266.785156 C 251.296875 266.878906 251.480469 266.925781 251.671875 266.925781 C 252.078125 266.925781 252.480469 266.710938 252.6875 266.324219 C 252.992188 265.765625 252.785156 265.066406 252.226562 264.765625 C 246.46875 261.625 242.03125 261.957031 239.78125 262.484375 C 239.65625 262.484375 239.535156 262.5 239.417969 262.546875 C 239.289062 262.59375 239.15625 262.648438 239.027344 262.691406 C 238.75 262.777344 238.542969 262.863281 238.386719 262.921875 C 235.40625 263.9375 232.660156 264.230469 232.390625 263.691406 C 231.699219 262.308594 232.945312 261.21875 233.082031 261.105469 C 233.113281 261.074219 233.144531 261.042969 233.175781 261.011719 C 233.199219 260.988281 233.222656 260.972656 233.238281 260.949219 C 233.375 260.789062 236.78125 256.949219 243.253906 258.46875 C 249.164062 259.859375 254.539062 265.804688 259.273438 271.054688 C 260.097656 271.960938 260.898438 272.851562 261.695312 273.707031 C 262.59375 274.671875 263.355469 275.585938 264.035156 276.386719 C 267.054688 279.996094 269.082031 282.050781 275.09375 282.714844 C 275.101562 282.722656 275.101562 282.726562 275.101562 282.742188 C 275.265625 283.042969 278.886719 290.175781 274.082031 296.304688 C 271.074219 295.605469 268.652344 294.914062 267.398438 294.539062 C 267.398438 294.484375 267.40625 294.425781 267.40625 294.371094 L 267.40625 290.785156 C 267.414062 289.011719 265.910156 287.582031 264.046875 287.582031 Z M 160.761719 287.949219 L 146.332031 251.058594 C 145.90625 249.984375 146.039062 248.816406 146.691406 247.855469 C 147.34375 246.898438 148.375 246.34375 149.535156 246.34375 L 216.925781 245.96875 C 216.933594 245.96875 216.941406 245.96875 216.949219 245.96875 C 218.363281 245.96875 219.621094 246.8125 220.152344 248.125 L 235.28125 285.394531 C 235.71875 286.476562 235.597656 287.660156 234.945312 288.625 C 234.289062 289.59375 233.246094 290.152344 232.070312 290.152344 L 163.980469 290.152344 C 162.550781 290.152344 161.28125 289.285156 160.761719 287.949219 Z M 266.847656 296.78125 C 267.9375 297.113281 269.769531 297.632812 272.058594 298.203125 L 265.863281 298.203125 C 266.261719 297.773438 266.59375 297.296875 266.847656 296.78125 Z M 174.40625 137.875 C 173.988281 139.335938 170.554688 142.296875 167.449219 144.59375 C 167.507812 143.242188 167.496094 141.730469 167.316406 140.292969 C 168.578125 139.089844 171.582031 136.59375 173.867188 136.179688 C 174.050781 136.308594 174.214844 136.460938 174.328125 136.648438 C 174.527344 136.96875 174.550781 137.367188 174.40625 137.875 Z M 170.730469 134.925781 C 169.164062 135.75 167.734375 136.863281 166.75 137.714844 C 166.625 137.351562 166.480469 137.023438 166.308594 136.714844 C 167.285156 135.972656 169.078125 134.828125 170.730469 134.925781 Z M 139.527344 150.832031 C 140.089844 148.902344 140.664062 146.90625 140.839844 144.941406 C 141.050781 142.574219 140.703125 140.578125 140.433594 138.980469 C 140.265625 138.007812 140.066406 136.816406 140.242188 136.46875 C 141.101562 136.945312 142.933594 140.269531 143.722656 143.804688 C 144.554688 147.527344 144.769531 150.054688 144.769531 150.078125 C 144.824219 150.714844 145.402344 151.183594 146.015625 151.128906 C 146.652344 151.074219 147.121094 150.523438 147.070312 149.886719 C 147.0625 149.832031 147 149.078125 146.816406 147.828125 C 151.664062 146.246094 156.253906 144.011719 160.5 141.175781 C 160.429688 142.421875 160.296875 143.726562 159.859375 144.847656 C 159.070312 146.875 157.410156 147.390625 154.027344 148.273438 C 152.574219 148.648438 150.933594 149.078125 149.152344 149.761719 C 142.933594 152.152344 142.632812 159.078125 142.617188 159.371094 C 142.59375 160.007812 143.09375 160.535156 143.722656 160.558594 C 144.371094 160.550781 144.894531 160.082031 144.917969 159.453125 C 144.921875 159.222656 145.191406 153.75 149.964844 151.914062 C 151.628906 151.277344 153.203125 150.859375 154.59375 150.5 C 157.890625 149.640625 160.746094 148.894531 161.996094 145.683594 C 162.683594 143.925781 162.757812 142.03125 162.828125 140.355469 C 162.921875 138.167969 163.042969 137.246094 163.582031 137.207031 C 163.679688 137.199219 163.8125 137.207031 163.996094 137.40625 C 165.066406 138.550781 165.496094 142.867188 164.925781 146.828125 C 164.359375 150.816406 163.679688 151.621094 157.722656 155.453125 C 151.464844 159.476562 149.007812 165.058594 150.558594 171.648438 C 144.992188 174.097656 139.972656 170.265625 139.75 170.089844 C 140.042969 165.058594 139.671875 162.042969 138.628906 159.046875 C 137.820312 156.703125 138.652344 153.847656 139.527344 150.832031 Z M 105.671875 125.710938 C 103.335938 127.316406 100.683594 127.601562 97.570312 126.59375 C 97.269531 126.496094 96.9375 126.527344 96.652344 126.679688 C 96.371094 126.832031 96.171875 127.09375 96.09375 127.402344 C 95.816406 128.492188 93.464844 138.128906 96.507812 142.097656 C 98.277344 144.410156 102.703125 144.695312 107.824219 145.023438 C 109.03125 145.101562 110.285156 145.1875 111.539062 145.292969 C 111.621094 147.128906 111.160156 156.335938 93.585938 159.261719 C 75.023438 162.355469 64.351562 154.554688 61.382812 151.945312 C 63.875 151.382812 65.582031 151.183594 65.660156 151.175781 C 74.46875 149.664062 79.839844 145.53125 82.5625 138.152344 C 84.445312 133.054688 85.800781 121.441406 81.808594 116.457031 C 80.425781 114.730469 78.535156 113.6875 76.859375 112.765625 C 73.667969 111.007812 72.039062 109.929688 72.609375 106.511719 C 72.785156 105.46875 73.121094 104.863281 73.613281 104.695312 C 75.03125 104.226562 78.097656 106.351562 79.820312 108.011719 C 80.125 108.304688 80.5625 108.402344 80.964844 108.28125 C 81.363281 108.15625 81.671875 107.820312 81.75 107.410156 L 82.761719 102.390625 C 84.898438 101.605469 92.742188 98.949219 101.75 98.679688 C 102.074219 98.671875 102.382812 98.527344 102.589844 98.28125 C 102.742188 98.105469 105.488281 94.832031 105.410156 90.109375 C 106.59375 91.9375 107.722656 94.550781 107.699219 97.835938 C 107.671875 101.230469 111.4375 101.335938 114.457031 101.429688 C 114.597656 101.4375 114.734375 101.4375 114.875 101.445312 C 114.574219 105.175781 112.867188 120.78125 105.671875 125.710938 Z M 66.828125 102.859375 C 67.1875 89.273438 70.824219 76.75 94.457031 76.75 C 94.863281 76.75 95.269531 76.75 95.691406 76.757812 C 104.371094 76.910156 110.890625 81.019531 115.058594 88.972656 C 117.203125 93.066406 118.15625 97.191406 118.546875 99.449219 C 117.289062 99.195312 115.886719 99.15625 114.527344 99.117188 C 111.335938 99.027344 110 98.828125 110.007812 97.84375 C 110.070312 89.804688 104.371094 85.371094 104.125 85.1875 C 103.710938 84.875 103.140625 84.875 102.726562 85.1875 C 102.3125 85.503906 102.160156 86.046875 102.359375 86.53125 C 104.273438 91.324219 101.988281 95.195312 101.128906 96.390625 C 90.417969 96.832031 81.695312 100.316406 81.324219 100.46875 C 80.964844 100.617188 80.703125 100.929688 80.625 101.308594 L 79.871094 105.015625 C 78.074219 103.585938 75.160156 101.761719 72.875 102.511719 C 71.929688 102.828125 70.722656 103.710938 70.316406 106.136719 C 69.457031 111.320312 72.785156 113.164062 75.730469 114.785156 C 77.289062 115.644531 78.894531 116.535156 79.996094 117.902344 C 83.109375 121.789062 82.292969 132.183594 80.386719 137.351562 C 78.875 141.460938 75.660156 147.121094 65.328125 148.894531 C 65.058594 148.925781 60.175781 149.464844 54.640625 151.515625 C 65.925781 136.554688 66.464844 116.496094 66.828125 102.859375 Z M 47.808594 224.25 L 42.335938 191.46875 C 41.972656 189.3125 43.433594 187.222656 45.59375 186.816406 L 89.457031 178.613281 C 91.625 178.207031 93.695312 179.574219 94.171875 181.730469 L 97.332031 196.078125 C 95.261719 196.484375 93.1875 197.175781 91.609375 197.867188 C 90.726562 198.25 89.933594 198.625 89.21875 198.980469 C 89.4375 197.25 89.511719 194.753906 88.527344 193.28125 C 87.707031 192.050781 86.445312 190.453125 84.929688 190.714844 C 84 190.878906 83.363281 191.644531 83.015625 193.003906 C 82.917969 193.410156 82.816406 193.855469 82.71875 194.332031 C 82.171875 196.875 81.488281 200.039062 78.84375 202.519531 C 75.789062 205.375 75.050781 210.757812 74.882812 212.800781 C 71.507812 213.945312 57.824219 218.792969 47.808594 224.25 Z M 70 217.003906 C 73.722656 215.605469 76.265625 214.746094 76.34375 214.722656 C 76.796875 214.566406 77.113281 214.144531 77.128906 213.660156 C 77.128906 213.59375 77.367188 207.035156 80.410156 204.179688 C 83.578125 201.207031 84.378906 197.503906 84.960938 194.800781 C 85.0625 194.347656 85.144531 193.933594 85.246094 193.550781 C 85.292969 193.351562 85.347656 193.210938 85.382812 193.105469 C 85.605469 193.28125 86.015625 193.671875 86.597656 194.546875 C 87.296875 195.59375 87.046875 198.542969 86.644531 200.300781 C 86.644531 200.316406 86.644531 200.332031 86.636719 200.347656 C 85.269531 201.136719 84.554688 201.667969 84.5 201.703125 C 83.992188 202.089844 83.886719 202.8125 84.269531 203.316406 C 84.652344 203.824219 85.375 203.933594 85.882812 203.546875 C 85.90625 203.53125 88.144531 201.882812 92.519531 199.96875 C 97.445312 197.8125 102.144531 197.605469 102.894531 198.511719 C 102.941406 198.5625 102.941406 198.570312 102.933594 198.617188 C 102.835938 199.15625 101.703125 200.136719 100.714844 200.730469 C 99.714844 201.066406 93.21875 203.332031 89.898438 205.613281 C 89.375 205.976562 89.234375 206.6875 89.597656 207.21875 C 89.820312 207.542969 90.179688 207.71875 90.550781 207.71875 C 90.773438 207.71875 91.003906 207.648438 91.203125 207.519531 C 93.894531 205.667969 99.160156 203.726562 100.953125 203.085938 C 101.472656 203.59375 102.335938 204.601562 102.652344 206.027344 C 102.664062 206.082031 102.6875 206.144531 102.695312 206.203125 C 102.574219 206.203125 102.449219 206.21875 102.335938 206.257812 C 102.21875 206.296875 99.484375 207.21875 96.546875 208.492188 C 95.960938 208.746094 95.691406 209.421875 95.945312 210.007812 C 96.140625 210.445312 96.5625 210.699219 97.007812 210.699219 C 97.160156 210.699219 97.316406 210.667969 97.46875 210.605469 C 100.3125 209.367188 103.050781 208.449219 103.074219 208.441406 C 103.1875 208.402344 103.296875 208.339844 103.386719 208.269531 C 104.234375 210.628906 104.941406 213.261719 101.605469 216.042969 C 96.660156 220.15625 80.355469 226.363281 80.195312 226.425781 C 80.058594 226.476562 79.925781 226.5625 79.8125 226.664062 C 79.757812 226.707031 78.664062 227.738281 76.859375 229.359375 C 68.355469 226.09375 69.941406 217.945312 70.015625 217.59375 C 70.070312 217.378906 70.054688 217.1875 70 217.003906 Z M 81.25 228.484375 C 83.125 227.761719 95.632812 222.90625 101.582031 218.921875 L 106.839844 245.46875 C 107.117188 246.84375 106.832031 248.25 106.039062 249.410156 C 105.25 250.566406 104.058594 251.351562 102.671875 251.613281 L 58.738281 259.761719 C 57.355469 260.011719 55.949219 259.714844 54.796875 258.90625 C 53.644531 258.101562 52.875 256.894531 52.636719 255.503906 L 52.003906 251.804688 C 51.988281 251.695312 51.953125 251.589844 51.898438 251.496094 C 64.707031 243.832031 79.363281 230.25 81.25 228.484375 Z M 51.34375 258.5 C 51.882812 259.390625 52.597656 260.175781 53.480469 260.789062 C 54.757812 261.679688 56.25 262.148438 57.769531 262.148438 C 58.230469 262.148438 58.703125 262.101562 59.164062 262.015625 L 103.097656 253.871094 C 105.085938 253.5 106.816406 252.371094 107.953125 250.699219 C 109.09375 249.023438 109.5 247.003906 109.109375 245.015625 L 103.617188 217.332031 C 107.753906 213.476562 106.300781 209.460938 105.402344 207.019531 C 105.203125 206.464844 105.011719 205.9375 104.917969 205.53125 C 104.566406 203.941406 103.75 202.726562 103.050781 201.933594 C 103.949219 201.246094 105.003906 200.207031 105.210938 199.03125 C 105.339844 198.3125 105.15625 197.621094 104.671875 197.042969 C 103.703125 195.882812 101.78125 195.585938 99.605469 195.753906 L 96.414062 181.246094 C 95.679688 177.875 92.425781 175.726562 89.027344 176.363281 L 45.164062 184.566406 C 41.78125 185.195312 39.492188 188.464844 40.058594 191.859375 L 45.65625 225.402344 C 45.664062 225.425781 45.671875 225.449219 45.679688 225.472656 C 43.796875 226.578125 42.105469 227.699219 40.703125 228.820312 C 40.207031 229.21875 40.128906 229.941406 40.527344 230.441406 C 40.757812 230.726562 41.089844 230.871094 41.425781 230.871094 C 41.679688 230.871094 41.933594 230.785156 42.148438 230.617188 C 47.960938 225.972656 59.585938 221.027344 67.65625 217.90625 C 67.410156 220.296875 67.355469 227.515625 74.960938 231.054688 C 66.820312 238.21875 50.351562 251.859375 40.597656 254.09375 C 37.167969 254.875 34.484375 254.382812 32.640625 252.632812 C 28.71875 248.910156 28.691406 239.816406 29.972656 232.550781 C 30.441406 229.917969 31.203125 224.933594 32.179688 218.628906 C 34.777344 201.78125 38.699219 176.308594 41.398438 166.367188 C 42.527344 162.195312 45.570312 158.703125 50.445312 155.976562 C 53.210938 154.425781 56.1875 153.355469 58.769531 152.628906 C 58.785156 152.648438 58.792969 152.671875 58.808594 152.6875 C 59.214844 153.140625 67.71875 162.320312 85.054688 162.320312 C 87.796875 162.320312 90.773438 162.089844 93.964844 161.558594 C 112.191406 158.523438 113.773438 148.574219 113.828125 145.5625 C 116.203125 145.871094 118.472656 146.339844 120.324219 147.183594 C 127.003906 150.230469 135.136719 169.382812 136.820312 176.746094 C 136.753906 177.332031 136.683594 177.9375 136.605469 178.566406 C 135.316406 189.101562 138.820312 212.394531 138.972656 213.386719 C 139.058594 213.953125 139.550781 214.359375 140.113281 214.359375 C 140.171875 214.359375 140.226562 214.351562 140.289062 214.34375 C 140.917969 214.253906 141.347656 213.660156 141.257812 213.03125 C 141.21875 212.792969 137.652344 189.066406 138.90625 178.84375 C 139.1875 176.523438 139.402344 174.511719 139.566406 172.714844 C 141.011719 173.574219 143.609375 174.789062 146.730469 174.789062 C 148.128906 174.789062 149.636719 174.535156 151.1875 173.898438 C 157.046875 194.164062 160.230469 207.996094 160.636719 214.988281 C 161.304688 226.363281 160.089844 232.582031 151.597656 235.03125 C 147.660156 236.167969 141.664062 233.390625 135.128906 227.414062 C 129.164062 221.960938 123.96875 214.875 121.882812 209.375 C 121.808594 209.183594 121.683594 209.023438 121.539062 208.902344 L 123.597656 194.960938 C 125.234375 193.582031 131.386719 187.675781 131.1875 177.398438 C 131.09375 172.484375 128.464844 167.847656 123.589844 163.984375 C 119.984375 161.128906 116.449219 159.699219 116.304688 159.636719 C 115.710938 159.398438 115.042969 159.691406 114.804688 160.277344 C 114.566406 160.859375 114.859375 161.535156 115.441406 161.773438 C 115.574219 161.828125 128.679688 167.203125 128.878906 177.4375 C 129.078125 187.820312 121.898438 193.375 121.832031 193.425781 C 121.585938 193.609375 121.421875 193.878906 121.386719 194.179688 L 118.046875 216.792969 C 117.679688 219.296875 118.019531 221.847656 119.039062 224.175781 C 123.984375 235.476562 140.171875 273.796875 143.753906 298.210938 L 40.667969 298.210938 C 40.8125 281.292969 48.382812 264.445312 51.34375 258.5 Z M 51.34375 258.5 " fill-opacity="1" fill-rule="nonzero"/></g><path fill="#000000" d="M 96.109375 106.929688 C 95.910156 108.164062 96.429688 109.277344 97.269531 109.410156 C 98.105469 109.539062 98.945312 108.648438 99.144531 107.40625 C 99.34375 106.160156 98.820312 105.054688 97.984375 104.925781 C 97.144531 104.792969 96.308594 105.683594 96.109375 106.929688 Z M 96.109375 106.929688 " fill-opacity="1" fill-rule="nonzero"/><path fill="#000000" d="M 108.523438 106.613281 C 107.6875 106.484375 106.847656 107.375 106.648438 108.617188 C 106.449219 109.855469 106.972656 110.96875 107.808594 111.097656 C 108.648438 111.230469 109.484375 110.335938 109.683594 109.09375 C 109.882812 107.859375 109.371094 106.75 108.523438 106.613281 Z M 108.523438 106.613281 " fill-opacity="1" fill-rule="nonzero"/><path fill="#000000" d="M 100.859375 112.289062 C 100.628906 112.203125 100.359375 112.25 100.167969 112.433594 C 99.914062 112.6875 99.90625 113.101562 100.160156 113.355469 C 100.445312 113.648438 100.765625 113.917969 101.136719 114.132812 C 101.519531 114.347656 101.933594 114.539062 102.433594 114.601562 C 102.917969 114.667969 103.480469 114.621094 103.964844 114.371094 C 104.449219 114.109375 104.789062 113.738281 104.972656 113.1875 C 105.011719 113.070312 105.011719 112.949219 104.964844 112.824219 C 104.863281 112.542969 104.550781 112.394531 104.257812 112.496094 L 103.925781 112.609375 C 103.71875 112.6875 103.464844 112.8125 103.28125 112.847656 C 103.082031 112.894531 102.882812 112.933594 102.644531 112.902344 C 102.40625 112.886719 102.128906 112.796875 101.835938 112.710938 C 101.691406 112.648438 101.550781 112.585938 101.398438 112.527344 C 101.242188 112.457031 101.097656 112.378906 100.9375 112.320312 Z M 100.859375 112.289062 " fill-opacity="1" fill-rule="nonzero"/><path fill="#000000" d="M 104.433594 118.578125 L 104.355469 118.617188 C 103.75 118.898438 103.003906 119.152344 102.320312 119.292969 C 101.613281 119.4375 100.90625 119.46875 100.207031 119.382812 C 99.515625 119.292969 98.820312 119.113281 98.167969 118.785156 C 97.507812 118.484375 96.898438 118.039062 96.269531 117.585938 L 96.214844 117.546875 C 96.007812 117.394531 95.707031 117.402344 95.507812 117.585938 C 95.269531 117.792969 95.246094 118.15625 95.453125 118.394531 C 95.738281 118.714844 96.03125 119.039062 96.347656 119.34375 C 96.691406 119.613281 97.015625 119.921875 97.414062 120.136719 C 98.160156 120.644531 99.058594 120.925781 99.96875 121.082031 C 100.882812 121.226562 101.820312 121.15625 102.6875 120.914062 C 103.574219 120.667969 104.355469 120.289062 105.101562 119.691406 C 105.332031 119.507812 105.417969 119.175781 105.289062 118.898438 C 105.148438 118.5625 104.757812 118.417969 104.433594 118.578125 Z M 104.433594 118.578125 " fill-opacity="1" fill-rule="nonzero"/><path fill="#000000" d="M 110.523438 102.804688 C 110 102.488281 109.382812 102.28125 108.753906 102.230469 C 108.117188 102.167969 107.457031 102.25 106.878906 102.503906 C 106.292969 102.734375 105.800781 103.121094 105.417969 103.574219 C 105.300781 103.710938 105.257812 103.894531 105.308594 104.078125 C 105.394531 104.378906 105.703125 104.546875 105.996094 104.472656 L 106.0625 104.457031 C 106.554688 104.316406 106.976562 104.140625 107.402344 104.0625 C 107.816406 103.949219 108.230469 103.917969 108.648438 103.917969 C 109.0625 103.925781 109.492188 103.996094 109.9375 104.117188 C 110.367188 104.242188 110.835938 104.433594 111.269531 104.625 L 111.335938 104.65625 C 111.460938 104.710938 111.605469 104.703125 111.722656 104.625 C 111.914062 104.5 111.96875 104.25 111.84375 104.054688 C 111.492188 103.511719 111.054688 103.128906 110.523438 102.804688 Z M 110.523438 102.804688 " fill-opacity="1" fill-rule="nonzero"/><path fill="#000000" d="M 95.410156 103.351562 C 95.902344 103.210938 96.324219 103.035156 96.746094 102.957031 C 97.160156 102.84375 97.578125 102.8125 97.992188 102.8125 C 98.40625 102.820312 98.835938 102.890625 99.285156 103.011719 C 99.714844 103.132812 100.183594 103.328125 100.613281 103.519531 L 100.683594 103.550781 C 100.804688 103.601562 100.953125 103.59375 101.066406 103.519531 C 101.257812 103.394531 101.3125 103.140625 101.191406 102.949219 C 100.84375 102.421875 100.40625 102.035156 99.882812 101.714844 C 99.359375 101.398438 98.746094 101.191406 98.113281 101.136719 C 97.476562 101.078125 96.816406 101.160156 96.238281 101.414062 C 95.65625 101.644531 95.164062 102.027344 94.777344 102.480469 C 94.664062 102.621094 94.617188 102.804688 94.671875 102.988281 C 94.753906 103.289062 95.0625 103.457031 95.355469 103.378906 Z M 95.410156 103.351562 " fill-opacity="1" fill-rule="nonzero"/><path fill="#000000" d="M 251.386719 221.847656 C 252.1875 221.695312 252.648438 220.617188 252.425781 219.4375 C 252.203125 218.253906 251.371094 217.425781 250.574219 217.578125 C 249.773438 217.730469 249.3125 218.808594 249.535156 219.988281 C 249.757812 221.171875 250.585938 222 251.386719 221.847656 Z M 251.386719 221.847656 " fill-opacity="1" fill-rule="nonzero"/><path fill="#000000" d="M 239.808594 219.535156 C 239.011719 219.691406 238.550781 220.765625 238.773438 221.949219 C 238.996094 223.128906 239.824219 223.960938 240.625 223.804688 C 241.425781 223.652344 241.886719 222.578125 241.664062 221.394531 C 241.441406 220.210938 240.609375 219.382812 239.808594 219.535156 Z M 239.808594 219.535156 " fill-opacity="1" fill-rule="nonzero"/><path fill="#000000" d="M 244.40625 226.824219 C 244.875 227.054688 245.414062 227.078125 245.875 227 C 246.351562 226.921875 246.746094 226.730469 247.105469 226.507812 C 247.460938 226.285156 247.75 226.023438 248.019531 225.734375 C 248.1875 225.550781 248.234375 225.273438 248.128906 225.035156 C 247.980469 224.71875 247.605469 224.589844 247.289062 224.742188 L 247.242188 224.765625 C 246.945312 224.910156 246.660156 225.050781 246.390625 225.171875 C 246.113281 225.265625 245.851562 225.363281 245.621094 225.378906 C 245.390625 225.417969 245.199219 225.394531 245.007812 225.347656 C 244.824219 225.320312 244.585938 225.203125 244.375 225.140625 L 244.0625 225.042969 C 243.953125 225.003906 243.832031 225.003906 243.714844 225.050781 C 243.4375 225.148438 243.300781 225.457031 243.398438 225.726562 C 243.601562 226.238281 243.9375 226.585938 244.40625 226.824219 Z M 244.40625 226.824219 " fill-opacity="1" fill-rule="nonzero"/><path fill="#000000" d="M 251.917969 229.625 L 251.871094 229.664062 C 251.289062 230.117188 250.71875 230.5625 250.097656 230.871094 C 249.480469 231.207031 248.828125 231.394531 248.167969 231.507812 C 247.503906 231.617188 246.820312 231.601562 246.144531 231.484375 C 245.476562 231.371094 244.761719 231.15625 244.167969 230.894531 L 244.09375 230.863281 C 243.832031 230.746094 243.515625 230.824219 243.339844 231.0625 C 243.132812 231.339844 243.191406 231.730469 243.46875 231.9375 C 244.207031 232.484375 244.960938 232.828125 245.820312 233.035156 C 246.667969 233.242188 247.566406 233.273438 248.433594 233.113281 C 249.296875 232.945312 250.148438 232.644531 250.847656 232.136719 C 251.226562 231.921875 251.527344 231.617188 251.847656 231.347656 C 252.148438 231.046875 252.410156 230.734375 252.679688 230.410156 C 252.839844 230.21875 252.847656 229.933594 252.695312 229.726562 C 252.503906 229.488281 252.15625 229.441406 251.917969 229.625 Z M 251.917969 229.625 " fill-opacity="1" fill-rule="nonzero"/><path fill="#000000" d="M 241.269531 215.550781 C 240.710938 215.328125 240.070312 215.265625 239.464844 215.34375 C 238.855469 215.421875 238.273438 215.628906 237.789062 215.949219 C 237.296875 216.273438 236.890625 216.65625 236.574219 217.171875 C 236.511719 217.277344 236.496094 217.417969 236.558594 217.539062 C 236.652344 217.730469 236.890625 217.816406 237.082031 217.722656 L 237.140625 217.691406 C 237.550781 217.5 237.988281 217.300781 238.394531 217.171875 C 238.8125 217.039062 239.21875 216.957031 239.625 216.941406 C 240.023438 216.933594 240.417969 216.941406 240.824219 217.039062 C 241.238281 217.101562 241.640625 217.261719 242.117188 217.378906 L 242.183594 217.394531 C 242.347656 217.433594 242.53125 217.394531 242.667969 217.269531 C 242.894531 217.070312 242.90625 216.734375 242.707031 216.519531 C 242.316406 216.105469 241.839844 215.75 241.269531 215.550781 Z M 241.269531 215.550781 " fill-opacity="1" fill-rule="nonzero"/></svg>